<svg width="58" height="58" viewBox="0 0 58 58" fill="none" xmlns="http://www.w3.org/2000/svg">
<g filter="url(#filter0_d_4456_347)">
<rect x="15" y="11" width="28" height="28" rx="14" fill="black"/>
<path d="M32.9375 25.4062C32.9375 24.25 33.4688 23.4062 34.5 22.75C33.9062 21.9062 33.0312 21.4688 31.875 21.375C30.75 21.2812 29.5312 22 29.0938 22C28.625 22 27.5625 21.4062 26.7188 21.4062C24.9688 21.4375 23.125 22.7812 23.125 25.5625C23.125 26.375 23.25 27.2188 23.5625 28.0938C23.9688 29.25 25.4062 32.0625 26.9062 32C27.6875 32 28.25 31.4375 29.2812 31.4375C30.2812 31.4375 30.7812 32 31.6562 32C33.1875 32 34.5 29.4375 34.875 28.2812C32.8438 27.3125 32.9375 25.4688 32.9375 25.4062ZM31.1875 20.2812C32.0312 19.2812 31.9375 18.3438 31.9375 18C31.1875 18.0625 30.3125 18.5312 29.8125 19.0938C29.25 19.7188 28.9375 20.5 29 21.3438C29.8125 21.4062 30.5625 21 31.1875 20.2812Z" fill="white"/>
</g>
<defs>
<filter id="filter0_d_4456_347" x="0" y="0" width="58" height="58" filterUnits="userSpaceOnUse" color-interpolation-filters="sRGB">
<feFlood flood-opacity="0" result="BackgroundImageFix"/>
<feColorMatrix in="SourceAlpha" type="matrix" values="0 0 0 0 0 0 0 0 0 0 0 0 0 0 0 0 0 0 127 0" result="hardAlpha"/>
<feOffset dy="4"/>
<feGaussianBlur stdDeviation="7.5"/>
<feComposite in2="hardAlpha" operator="out"/>
<feColorMatrix type="matrix" values="0 0 0 0 0 0 0 0 0 0 0 0 0 0 0 0 0 0 0.54 0"/>
<feBlend mode="normal" in2="BackgroundImageFix" result="effect1_dropShadow_4456_347"/>
<feBlend mode="normal" in="SourceGraphic" in2="effect1_dropShadow_4456_347" result="shape"/>
</filter>
</defs>
</svg>
