<svg width="19" height="19" viewBox="0 0 19 19" fill="none" xmlns="http://www.w3.org/2000/svg">
<path d="M1 13.2571H2.88571M1.94286 17.0286V1.94286C1.94286 1.6928 2.04219 1.45298 2.21901 1.27616C2.39583 1.09934 2.63565 1 2.88571 1H17.0286C17.2786 1 17.5185 1.09934 17.6953 1.27616C17.8721 1.45298 17.9714 1.6928 17.9714 1.94286V17.0286C17.9714 17.2786 17.8721 17.5185 17.6953 17.6953C17.5185 17.8721 17.2786 17.9714 17.0286 17.9714H2.88571C2.63565 17.9714 2.39583 17.8721 2.21901 17.6953C2.04219 17.5185 1.94286 17.2786 1.94286 17.0286ZM14.2 17.9714H17.0286C17.2786 17.9714 17.5185 17.8721 17.6953 17.6953C17.8721 17.5185 17.9714 17.2786 17.9714 17.0286V1.94286C17.9714 1.6928 17.8721 1.45298 17.6953 1.27616C17.5185 1.09934 17.2786 1 17.0286 1H14.2V17.9714ZM1 5.71429H2.88571H1ZM1 9.48571H2.88571H1Z" stroke="#515153" stroke-width="1.88571" stroke-linecap="round" stroke-linejoin="round"/>
</svg>
