<svg width="22" height="20" viewBox="0 0 22 20" fill="none" xmlns="http://www.w3.org/2000/svg">
<path d="M2.50991 5.06732L2.51 5.06732C3.8627 5.06732 4.95891 5.06795 6.05509 5.06859C7.15127 5.06923 8.2474 5.06987 9.6 5.06987C9.61763 5.06987 9.65201 5.06949 9.69554 5.069C9.7399 5.0685 9.79377 5.0679 9.84913 5.06749C9.95179 5.06672 10.0685 5.06646 10.1134 5.07048L10.1138 5.07051C10.3804 5.0951 10.6433 5.29152 10.65 5.58848L10.65 5.58863C10.6566 5.89625 10.3956 6.10585 10.1129 6.1299M2.50991 5.06732L2.52863 18.0841C2.25722 18.0841 2.11966 18.036 2.04442 17.9624C1.97009 17.8896 1.92138 17.7572 1.92138 17.4926V17.4716V17.4506V17.4295V17.4085V17.3875V17.3665V17.3454V17.3244V17.3034V17.2824V17.2613V17.2403V17.2193V17.1982V17.1772V17.1562V17.1352V17.1141V17.0931V17.0721V17.0511V17.03V17.009V16.988V16.9669V16.9459V16.9249V16.9039V16.8828V16.8618V16.8408V16.8198V16.7987V16.7777V16.7567V16.7357V16.7146V16.6936V16.6726V16.6515V16.6305V16.6095V16.5885V16.5674V16.5464V16.5254V16.5044V16.4833V16.4623V16.4413V16.4202V16.3992V16.3782V16.3572V16.3361V16.3151V16.2941V16.2731V16.252V16.231V16.21V16.1889V16.1679V16.1469V16.1259V16.1048V16.0838V16.0628V16.0418V16.0207V15.9997V15.9787V15.9576V15.9366V15.9156V15.8946V15.8735V15.8525V15.8315V15.8104V15.7894V15.7684V15.7474V15.7263V15.7053V15.6843V15.6633V15.6422V15.6212V15.6002V15.5791V15.5581V15.5371V15.5161V15.495V15.474V15.453V15.432V15.4109V15.3899V15.3689V15.3478V15.3268V15.3058V15.2848V15.2637V15.2427V15.2217V15.2006V15.1796V15.1586V15.1376V15.1165V15.0955V15.0745V15.0535V15.0324V15.0114V14.9904V14.9693V14.9483V14.9273V14.9063V14.8852V14.8642V14.8432V14.8221V14.8011V14.7801V14.7591V14.738V14.717V14.696V14.6749V14.6539V14.6329V14.6119V14.5908V14.5698V14.5488V14.5278V14.5067V14.4857V14.4647V14.4436V14.4226V14.4016V14.3806V14.3595V14.3385V14.3175V14.2964V14.2754V14.2544V14.2334V14.2123V14.1913V14.1703V14.1492V14.1282V14.1072V14.0862V14.0651V14.0441V14.0231V14.002V13.981V13.96V13.939V13.9179V13.8969V13.8759V13.8548V13.8338V13.8128V13.7918V13.7707V13.7497V13.7287V13.7077V13.6866V13.6656V13.6446V13.6235V13.6025V13.5815V13.5605V13.5394V13.5184V13.4974V13.4763V13.4553V13.4343V13.4133V13.3922V13.3712V13.3502V13.3291V13.3081V13.2871V13.2661V13.245V13.224V13.203V13.1819V13.1609V13.1399V13.1189V13.0978V13.0768V13.0558V13.0347V13.0137V12.9927V12.9717V12.9506V12.9296V12.9086V12.8875V12.8665V12.8455V12.8245V12.8034V12.7824V12.7614V12.7403V12.7193V12.6983V12.6773V12.6562V12.6352V12.6142V12.5931V12.5721V12.5511V12.5301V12.509V12.488V12.467V12.4459V12.4249V12.4039V12.3829V12.3618V12.3408V12.3198V12.2987V12.2777V12.2567V12.2357V12.2146V12.1936V12.1726V12.1515V12.1305V12.1095V12.0885V12.0674V12.0464V12.0254V12.0043V11.9833V11.9623V11.9413V11.9202V11.8992V11.8782V11.8572V11.8361V11.8151V11.7941V11.773V11.752V11.731V11.71V11.6889V11.6679V11.6469V11.6258V11.6048V11.5838V11.5628V11.5417V11.5207V11.4997V11.4786V11.4576V11.4366V11.4156V11.3945V11.3735V11.3525V11.3314V11.3104V11.2894V11.2684V11.2473V11.2263V11.2053V11.1842V11.1632V11.1422V11.1212V11.1001V11.0791V11.0581V11.037V11.016V10.995V10.974V10.9529V10.9319V10.9109V10.8898V10.8688V10.8478V10.8268V10.8057V10.7847V10.7637V10.7426V10.7216V10.7006V10.6796V10.6585V10.6375V10.6165V10.5954V10.5744V10.5534V10.5324V10.5113V10.4903V10.4693V10.4482V10.4272V10.4062V10.3852V10.3641V10.3431V10.3221V10.3011V10.28V10.259V10.238V10.2169V10.1959V10.1749V10.1539V10.1328V10.1118V10.0908V10.0697V10.0487V10.0277V10.0067V9.98563V9.9646V9.94357V9.92254V9.90151V9.88049V9.85946V9.83843V9.8174V9.79637V9.77535V9.75432V9.73329V9.71226V9.69123V9.67021V9.64918V9.62815V9.60712V9.58609V9.56506V9.54404V9.52301V9.50198V9.48095V9.45992V9.4389V9.41787V9.39684V9.37581V9.35478V9.33376V9.31273V9.2917V9.27067V9.24964V9.22862V9.20759V9.18656V9.16553V9.14451V9.12348V9.10245V9.08142V9.06039V9.03937V9.01834V8.99731V8.97628V8.95525V8.93423V8.9132V8.89217V8.87114V8.85012V8.82909V8.80806V8.78703V8.766V8.74498V8.72395V8.70292V8.68189V8.66087V8.63984V8.61881V8.59778V8.57676V8.55573V8.5347V8.51367V8.49264V8.47162V8.45059V8.42956V8.40853V8.38751V8.36648V8.34545V8.32442V8.3034V8.28237V8.26134V8.24031V8.21929V8.19826V8.17723V8.1562V8.13518V8.11415V8.09312V8.07209V8.05107V8.03004V8.00901V7.98798V7.96696V7.94593V7.9249V7.90388V7.88285V7.86182V7.84079V7.81977V7.79874V7.77771V7.75668V7.73566V7.71463V7.6936V7.67258V7.65155V7.63052V7.60949V7.58847V7.56744V7.54641V7.52539V7.50436V7.48333V7.4623V7.44128V7.42025V7.39922V7.3782V7.35717V7.33614V7.31512V7.29409V7.27306V7.25203V7.23101V7.20998V7.18895V7.16793V7.1469V7.12587V7.10485V7.08382V7.06279V7.04177V7.02074V6.99971V6.97869V6.95766V6.93663V6.9156V6.89458V6.87355V6.85252V6.8315V6.81047V6.78944V6.76842V6.74739V6.72637C1.92138 6.46056 1.96989 6.32754 2.04399 6.25463C2.11876 6.18104 2.25561 6.13301 2.5267 6.13301L6.06335 6.13301L9.6 6.13301C9.61545 6.13301 9.64093 6.13316 9.67314 6.13336C9.72084 6.13365 9.78329 6.13403 9.84978 6.13413C9.95255 6.13428 10.0681 6.13382 10.1129 6.1299M2.50991 5.06732C1.99908 5.06765 1.57903 5.20932 1.28665 5.49796C0.993973 5.7869 0.85 6.20261 0.85 6.7085V6.72957V6.75064V6.77171V6.79279V6.81386V6.83493V6.856V6.87707V6.89814V6.91921V6.94029V6.96136V6.98243V7.0035V7.02457V7.04564V7.06672V7.08779V7.10886V7.12993V7.151V7.17207V7.19315V7.21422V7.23529V7.25636V7.27743V7.29851V7.31958V7.34065V7.36172V7.38279V7.40386V7.42494V7.44601V7.46708V7.48815V7.50922V7.5303V7.55137V7.57244V7.59351V7.61458V7.63566V7.65673V7.6778V7.69887V7.71995V7.74102V7.76209V7.78316V7.80423V7.82531V7.84638V7.86745V7.88852V7.90959V7.93067V7.95174V7.97281V7.99388V8.01496V8.03603V8.0571V8.07817V8.09925V8.12032V8.14139V8.16246V8.18354V8.20461V8.22568V8.24675V8.26782V8.2889V8.30997V8.33104V8.35211V8.37319V8.39426V8.41533V8.4364V8.45748V8.47855V8.49962V8.5207V8.54177V8.56284V8.58391V8.60499V8.62606V8.64713V8.6682V8.68928V8.71035V8.73142V8.75249V8.77357V8.79464V8.81571V8.83679V8.85786V8.87893V8.9V8.92108V8.94215V8.96322V8.9843V9.00537V9.02644V9.04751V9.06859V9.08966V9.11073V9.13181V9.15288V9.17395V9.19502V9.2161V9.23717V9.25824V9.27932V9.30039V9.32146V9.34254V9.36361V9.38468V9.40576V9.42683V9.4479V9.46897V9.49005V9.51112V9.53219V9.55327V9.57434V9.59541V9.61649V9.63756V9.65863V9.67971V9.70078V9.72185V9.74293V9.764V9.78507V9.80615V9.82722V9.84829V9.86937V9.89044V9.91151V9.93259V9.95366V9.97473V9.99581V10.0169V10.038V10.059V10.0801V10.1012V10.1222V10.1433V10.1644V10.1855V10.2065V10.2276V10.2487V10.2698V10.2908V10.3119V10.333V10.3541V10.3751V10.3962V10.4173V10.4383V10.4594V10.4805V10.5016V10.5226V10.5437V10.5648V10.5859V10.6069V10.628V10.6491V10.6702V10.6912V10.7123V10.7334V10.7545V10.7755V10.7966V10.8177V10.8387V10.8598V10.8809V10.902V10.923V10.9441V10.9652V10.9863V11.0073V11.0284V11.0495V11.0706V11.0916V11.1127V11.1338V11.1549V11.1759V11.197V11.2181V11.2392V11.2602V11.2813V11.3024V11.3234V11.3445V11.3656V11.3867V11.4077V11.4288V11.4499V11.471V11.492V11.5131V11.5342V11.5553V11.5763V11.5974V11.6185V11.6396V11.6606V11.6817V11.7028V11.7239V11.7449V11.766V11.7871V11.8082V11.8292V11.8503V11.8714V11.8924V11.9135V11.9346V11.9557V11.9767V11.9978V12.0189V12.04V12.061V12.0821V12.1032V12.1243V12.1453V12.1664V12.1875V12.2086V12.2296V12.2507V12.2718V12.2929V12.3139V12.335V12.3561V12.3772V12.3982V12.4193V12.4404V12.4615V12.4825V12.5036V12.5247V12.5458V12.5668V12.5879V12.609V12.63V12.6511V12.6722V12.6933V12.7143V12.7354V12.7565V12.7776V12.7986V12.8197V12.8408V12.8619V12.8829V12.904V12.9251V12.9462V12.9672V12.9883V13.0094V13.0305V13.0515V13.0726V13.0937V13.1148V13.1358V13.1569V13.178V13.1991V13.2201V13.2412V13.2623V13.2834V13.3044V13.3255V13.3466V13.3677V13.3887V13.4098V13.4309V13.452V13.473V13.4941V13.5152V13.5363V13.5573V13.5784V13.5995V13.6206V13.6416V13.6627V13.6838V13.7049V13.7259V13.747V13.7681V13.7892V13.8102V13.8313V13.8524V13.8735V13.8945V13.9156V13.9367V13.9578V13.9788V13.9999V14.021V14.042V14.0631V14.0842V14.1053V14.1263V14.1474V14.1685V14.1896V14.2106V14.2317V14.2528V14.2739V14.2949V14.316V14.3371V14.3582V14.3792V14.4003V14.4214V14.4425V14.4635V14.4846V14.5057V14.5268V14.5478V14.5689V14.59V14.6111V14.6321V14.6532V14.6743V14.6954V14.7164V14.7375V14.7586V14.7797V14.8007V14.8218V14.8429V14.864V14.885V14.9061V14.9272V14.9483V14.9693V14.9904V15.0115V15.0326V15.0536V15.0747V15.0958V15.1169V15.1379V15.159V15.1801V15.2012V15.2222V15.2433V15.2644V15.2855V15.3065V15.3276V15.3487V15.3698V15.3908V15.4119V15.433V15.4541V15.4751V15.4962V15.5173V15.5384V15.5594V15.5805V15.6016V15.6227V15.6437V15.6648V15.6859V15.707V15.728V15.7491V15.7702V15.7913V15.8123V15.8334V15.8545V15.8756V15.8966V15.9177V15.9388V15.9599V15.9809V16.002V16.0231V16.0442V16.0652V16.0863V16.1074V16.1285V16.1495V16.1706V16.1917V16.2128V16.2339V16.2549V16.276V16.2971V16.3182V16.3392V16.3603V16.3814V16.4025V16.4235V16.4446V16.4657V16.4868V16.5078V16.5289V16.55V16.5711V16.5921V16.6132V16.6343V16.6554V16.6764V16.6975V16.7186V16.7397V16.7607V16.7818V16.8029V16.824V16.845V16.8661V16.8872V16.9083V16.9293V16.9504V16.9715V16.9926V17.0136V17.0347V17.0558V17.0769V17.0979V17.119V17.1401V17.1612V17.1822V17.2033V17.2244V17.2455V17.2665V17.2876V17.3087V17.3298V17.3508V17.3719V17.393V17.4141V17.4351V17.4562V17.4773V17.4984C0.85 18.0108 0.992912 18.4297 1.28749 18.7199C1.58171 19.0097 2.00551 19.1498 2.52349 19.1498H2.53855M2.50991 5.06732L2.53855 19.1498M10.1129 6.1299C10.113 6.12989 10.1131 6.12988 10.1133 6.12987L10.1 5.98046L10.1127 6.12992C10.1127 6.12992 10.1128 6.12991 10.1129 6.1299ZM2.53855 19.1498H2.5536M2.53855 19.1498H2.5536M2.5536 19.1498H2.56865M2.5536 19.1498H2.56865M2.56865 19.1498H2.58371M2.56865 19.1498H2.58371M2.58371 19.1498H2.59876M2.58371 19.1498H2.59876M2.59876 19.1498H2.61381M2.59876 19.1498H2.61381M2.61381 19.1498H2.62887M2.61381 19.1498H2.62887M2.62887 19.1498H2.64392M2.62887 19.1498H2.64392M2.64392 19.1498H2.65897M2.64392 19.1498H2.65897M2.65897 19.1498H2.67403M2.65897 19.1498H2.67403M2.67403 19.1498H2.68908M2.67403 19.1498H2.68908M2.68908 19.1498H2.70413M2.68908 19.1498H2.70413M2.70413 19.1498H2.71919M2.70413 19.1498H2.71919M2.71919 19.1498H2.73424M2.71919 19.1498H2.73424M2.73424 19.1498H2.74929M2.73424 19.1498H2.74929M2.74929 19.1498H2.76435M2.74929 19.1498H2.76435M2.76435 19.1498H2.7794M2.76435 19.1498H2.7794M2.7794 19.1498H2.79445M2.7794 19.1498H2.79445M2.79445 19.1498H2.80951M2.79445 19.1498H2.80951M2.80951 19.1498H2.82456M2.80951 19.1498H2.82456M2.82456 19.1498H2.83961M2.82456 19.1498H2.83961M2.83961 19.1498H2.85467M2.83961 19.1498H2.85467M2.85467 19.1498H2.86972M2.85467 19.1498H2.86972M2.86972 19.1498H2.88477M2.86972 19.1498H2.88477M2.88477 19.1498H2.89983M2.88477 19.1498H2.89983M2.89983 19.1498H2.91488M2.89983 19.1498H2.91488M2.91488 19.1498H2.92993M2.91488 19.1498H2.92993M2.92993 19.1498H2.94498M2.92993 19.1498H2.94498M2.94498 19.1498H2.96004M2.94498 19.1498H2.96004M2.96004 19.1498H2.97509M2.96004 19.1498H2.97509M2.97509 19.1498H2.99014M2.97509 19.1498H2.99014M2.99014 19.1498H3.0052M2.99014 19.1498H3.0052M3.0052 19.1498H3.02025M3.0052 19.1498H3.02025M3.02025 19.1498H3.0353M3.02025 19.1498H3.0353M3.0353 19.1498H3.05036M3.0353 19.1498H3.05036M3.05036 19.1498H3.06541M3.05036 19.1498H3.06541M3.06541 19.1498H3.08046M3.06541 19.1498H3.08046M3.08046 19.1498H3.09552M3.08046 19.1498H3.09552M3.09552 19.1498H3.11057M3.09552 19.1498H3.11057M3.11057 19.1498H3.12562M3.11057 19.1498H3.12562M3.12562 19.1498H3.14067M3.12562 19.1498H3.14067M3.14067 19.1498H3.15573M3.14067 19.1498H3.15573M3.15573 19.1498H3.17078M3.15573 19.1498H3.17078M3.17078 19.1498H3.18583M3.17078 19.1498H3.18583M3.18583 19.1498H3.20089M3.18583 19.1498H3.20089M3.20089 19.1498H3.21594M3.20089 19.1498H3.21594M3.21594 19.1498H3.23099M3.21594 19.1498H3.23099M3.23099 19.1498H3.24604M3.23099 19.1498H3.24604M3.24604 19.1498H3.2611M3.24604 19.1498H3.2611M3.2611 19.1498H3.27615M3.2611 19.1498H3.27615M3.27615 19.1498H3.2912M3.27615 19.1498H3.2912M3.2912 19.1498H3.30626M3.2912 19.1498H3.30626M3.30626 19.1498H3.32131M3.30626 19.1498H3.32131M3.32131 19.1498H3.33636M3.32131 19.1498H3.33636M3.33636 19.1498H3.35141M3.33636 19.1498H3.35141M3.35141 19.1498H3.36647M3.35141 19.1498H3.36647M3.36647 19.1498H3.38152M3.36647 19.1498H3.38152M3.38152 19.1498H3.39657M3.38152 19.1498H3.39657M3.39657 19.1498H3.41162M3.39657 19.1498H3.41162M3.41162 19.1498H3.42668M3.41162 19.1498H3.42668M3.42668 19.1498H3.44173M3.42668 19.1498H3.44173M3.44173 19.1498H3.45678M3.44173 19.1498H3.45678M3.45678 19.1498H3.47184M3.45678 19.1498H3.47184M3.47184 19.1498H3.48689M3.47184 19.1498H3.48689M3.48689 19.1498H3.50194M3.48689 19.1498H3.50194M3.50194 19.1498H3.51699M3.50194 19.1498H3.51699M3.51699 19.1498H3.53205M3.51699 19.1498H3.53205M3.53205 19.1498H3.5471M3.53205 19.1498H3.5471M3.5471 19.1498H3.56215M3.5471 19.1498H3.56215M3.56215 19.1498H3.5772M3.56215 19.1498H3.5772M3.5772 19.1498H3.59226M3.5772 19.1498H3.59226M3.59226 19.1498H3.60731M3.59226 19.1498H3.60731M3.60731 19.1498H3.62236M3.60731 19.1498H3.62236M3.62236 19.1498H3.63741M3.62236 19.1498H3.63741M3.63741 19.1498H3.65247M3.63741 19.1498H3.65247M3.65247 19.1498H3.66752M3.65247 19.1498H3.66752M3.66752 19.1498H3.68257M3.66752 19.1498H3.68257M3.68257 19.1498H3.69762M3.68257 19.1498H3.69762M3.69762 19.1498H3.71268M3.69762 19.1498H3.71268M3.71268 19.1498H3.72773M3.71268 19.1498H3.72773M3.72773 19.1498H3.74278M3.72773 19.1498H3.74278M3.74278 19.1498H3.75783M3.74278 19.1498H3.75783M3.75783 19.1498H3.77289M3.75783 19.1498H3.77289M3.77289 19.1498H3.78794M3.77289 19.1498H3.78794M3.78794 19.1498H3.80299M3.78794 19.1498H3.80299M3.80299 19.1498H3.81804M3.80299 19.1498H3.81804M3.81804 19.1498H3.8331M3.81804 19.1498H3.8331M3.8331 19.1498H3.84815M3.8331 19.1498H3.84815M3.84815 19.1498H3.8632M3.84815 19.1498H3.8632M3.8632 19.1498H3.87825M3.8632 19.1498H3.87825M3.87825 19.1498H3.89331M3.87825 19.1498H3.89331M3.89331 19.1498H3.90836M3.89331 19.1498H3.90836M3.90836 19.1498H3.92341M3.90836 19.1498H3.92341M3.92341 19.1498H3.93846M3.92341 19.1498H3.93846M3.93846 19.1498H3.95352M3.93846 19.1498H3.95352M3.95352 19.1498H3.96857M3.95352 19.1498H3.96857M3.96857 19.1498H3.98362M3.96857 19.1498H3.98362M3.98362 19.1498H3.99867M3.98362 19.1498H3.99867M3.99867 19.1498H4.01372M3.99867 19.1498H4.01372M4.01372 19.1498H4.02878M4.01372 19.1498H4.02878M4.02878 19.1498H4.04383M4.02878 19.1498H4.04383M4.04383 19.1498H4.05888M4.04383 19.1498H4.05888M4.05888 19.1498H4.07393M4.05888 19.1498H4.07393M4.07393 19.1498H4.08899M4.07393 19.1498H4.08899M4.08899 19.1498H4.10404M4.08899 19.1498H4.10404M4.10404 19.1498H4.11909M4.10404 19.1498H4.11909M4.11909 19.1498H4.13414M4.11909 19.1498H4.13414M4.13414 19.1498H4.1492M4.13414 19.1498H4.1492M4.1492 19.1498H4.16425M4.1492 19.1498H4.16425M4.16425 19.1498H4.1793M4.16425 19.1498H4.1793M4.1793 19.1498H4.19435M4.1793 19.1498H4.19435M4.19435 19.1498H4.2094M4.19435 19.1498H4.2094M4.2094 19.1498H4.22446M4.2094 19.1498H4.22446M4.22446 19.1498H4.23951M4.22446 19.1498H4.23951M4.23951 19.1498H4.25456M4.23951 19.1498H4.25456M4.25456 19.1498H4.26961M4.25456 19.1498H4.26961M4.26961 19.1498H4.28466M4.26961 19.1498H4.28466M4.28466 19.1498H4.29972M4.28466 19.1498H4.29972M4.29972 19.1498H4.31477M4.29972 19.1498H4.31477M4.31477 19.1498H4.32982M4.31477 19.1498H4.32982M4.32982 19.1498H4.34487M4.32982 19.1498H4.34487M4.34487 19.1498H4.35993M4.34487 19.1498H4.35993M4.35993 19.1498H4.37498M4.35993 19.1498H4.37498M4.37498 19.1498H4.39003M4.37498 19.1498H4.39003M4.39003 19.1498H4.40508M4.39003 19.1498H4.40508M4.40508 19.1498H4.42013M4.40508 19.1498H4.42013M4.42013 19.1498H4.43519M4.42013 19.1498H4.43519M4.43519 19.1498H4.45024M4.43519 19.1498H4.45024M4.45024 19.1498H4.46529M4.45024 19.1498H4.46529M4.46529 19.1498H4.48034M4.46529 19.1498H4.48034M4.48034 19.1498H4.49539M4.48034 19.1498H4.49539M4.49539 19.1498H4.51045M4.49539 19.1498H4.51045M4.51045 19.1498H4.5255M4.51045 19.1498H4.5255M4.5255 19.1498H4.54055M4.5255 19.1498H4.54055M4.54055 19.1498H4.5556M4.54055 19.1498H4.5556M4.5556 19.1498H4.57065M4.5556 19.1498H4.57065M4.57065 19.1498H4.58571M4.57065 19.1498H4.58571M4.58571 19.1498H4.60076M4.58571 19.1498H4.60076M4.60076 19.1498H4.61581M4.60076 19.1498H4.61581M4.61581 19.1498H4.63086M4.61581 19.1498H4.63086M4.63086 19.1498H4.64591M4.63086 19.1498H4.64591M4.64591 19.1498H4.66097M4.64591 19.1498H4.66097M4.66097 19.1498H4.67602M4.66097 19.1498H4.67602M4.67602 19.1498H4.69107M4.67602 19.1498H4.69107M4.69107 19.1498H4.70612M4.69107 19.1498H4.70612M4.70612 19.1498H4.72117M4.70612 19.1498H4.72117M4.72117 19.1498H4.73623M4.72117 19.1498H4.73623M4.73623 19.1498H4.75128M4.73623 19.1498H4.75128M4.75128 19.1498H4.76633M4.75128 19.1498H4.76633M4.76633 19.1498H4.78138M4.76633 19.1498H4.78138M4.78138 19.1498H4.79643M4.78138 19.1498H4.79643M4.79643 19.1498H4.81149M4.79643 19.1498H4.81149M4.81149 19.1498H4.82654M4.81149 19.1498H4.82654M4.82654 19.1498H4.84159M4.82654 19.1498H4.84159M4.84159 19.1498H4.85664M4.84159 19.1498H4.85664M4.85664 19.1498H4.87169M4.85664 19.1498H4.87169M4.87169 19.1498H4.88675M4.87169 19.1498H4.88675M4.88675 19.1498H4.9018M4.88675 19.1498H4.9018M4.9018 19.1498H4.91685M4.9018 19.1498H4.91685M4.91685 19.1498H4.9319M4.91685 19.1498H4.9319M4.9319 19.1498H4.94695M4.9319 19.1498H4.94695M4.94695 19.1498H4.962M4.94695 19.1498H4.962M4.962 19.1498H4.97706M4.962 19.1498H4.97706M4.97706 19.1498H4.99211M4.97706 19.1498H4.99211M4.99211 19.1498H5.00716M4.99211 19.1498H5.00716M5.00716 19.1498H5.02221M5.00716 19.1498H5.02221M5.02221 19.1498H5.03726M5.02221 19.1498H5.03726M5.03726 19.1498H5.05232M5.03726 19.1498H5.05232M5.05232 19.1498H5.06737M5.05232 19.1498H5.06737M5.06737 19.1498H5.08242M5.06737 19.1498H5.08242M5.08242 19.1498H5.09747M5.08242 19.1498H5.09747M5.09747 19.1498H5.11252M5.09747 19.1498H5.11252M5.11252 19.1498H5.12757M5.11252 19.1498H5.12757M5.12757 19.1498H5.14263M5.12757 19.1498H5.14263M5.14263 19.1498H5.15768M5.14263 19.1498H5.15768M5.15768 19.1498H5.17273M5.15768 19.1498H5.17273M5.17273 19.1498H5.18778M5.17273 19.1498H5.18778M5.18778 19.1498H5.20283M5.18778 19.1498H5.20283M5.20283 19.1498H5.21789M5.20283 19.1498H5.21789M5.21789 19.1498H5.23294M5.21789 19.1498H5.23294M5.23294 19.1498H5.24799M5.23294 19.1498H5.24799M5.24799 19.1498H5.26304M5.24799 19.1498H5.26304M5.26304 19.1498H5.27809M5.26304 19.1498H5.27809M5.27809 19.1498H5.29314M5.27809 19.1498H5.29314M5.29314 19.1498H5.3082M5.29314 19.1498H5.3082M5.3082 19.1498H5.32325M5.3082 19.1498H5.32325M5.32325 19.1498H5.3383M5.32325 19.1498H5.3383M5.3383 19.1498H5.35335M5.3383 19.1498H5.35335M5.35335 19.1498H5.3684M5.35335 19.1498H5.3684M5.3684 19.1498H5.38345M5.3684 19.1498H5.38345M5.38345 19.1498H5.39851M5.38345 19.1498H5.39851M5.39851 19.1498H5.41356M5.39851 19.1498H5.41356M5.41356 19.1498H5.42861M5.41356 19.1498H5.42861M5.42861 19.1498H5.44366M5.42861 19.1498H5.44366M5.44366 19.1498H5.45871M5.44366 19.1498H5.45871M5.45871 19.1498H5.47377M5.45871 19.1498H5.47377M5.47377 19.1498H5.48882M5.47377 19.1498H5.48882M5.48882 19.1498H5.50387M5.48882 19.1498H5.50387M5.50387 19.1498H5.51892M5.50387 19.1498H5.51892M5.51892 19.1498H5.53397M5.51892 19.1498H5.53397M5.53397 19.1498H5.54902M5.53397 19.1498H5.54902M5.54902 19.1498H5.56408M5.54902 19.1498H5.56408M5.56408 19.1498H5.57913M5.56408 19.1498H5.57913M5.57913 19.1498H5.59418M5.57913 19.1498H5.59418M5.59418 19.1498H5.60923M5.59418 19.1498H5.60923M5.60923 19.1498H5.62428M5.60923 19.1498H5.62428M5.62428 19.1498H5.63933M5.62428 19.1498H5.63933M5.63933 19.1498H5.65439M5.63933 19.1498H5.65439M5.65439 19.1498H5.66944M5.65439 19.1498H5.66944M5.66944 19.1498H5.68449M5.66944 19.1498H5.68449M5.68449 19.1498H5.69954M5.68449 19.1498H5.69954M5.69954 19.1498H5.71459M5.69954 19.1498H5.71459M5.71459 19.1498H5.72964M5.71459 19.1498H5.72964M5.72964 19.1498H5.7447M5.72964 19.1498H5.7447M5.7447 19.1498H5.75975M5.7447 19.1498H5.75975M5.75975 19.1498H5.7748M5.75975 19.1498H5.7748M5.7748 19.1498H5.78985M5.7748 19.1498H5.78985M5.78985 19.1498H5.8049M5.78985 19.1498H5.8049M5.8049 19.1498H5.81995M5.8049 19.1498H5.81995M5.81995 19.1498H5.83501M5.81995 19.1498H5.83501M5.83501 19.1498H5.85006M5.83501 19.1498H5.85006M5.85006 19.1498H5.86511M5.85006 19.1498H5.86511M5.86511 19.1498H5.88016M5.86511 19.1498H5.88016M5.88016 19.1498H5.89521M5.88016 19.1498H5.89521M5.89521 19.1498H5.91026M5.89521 19.1498H5.91026M5.91026 19.1498H5.92531M5.91026 19.1498H5.92531M5.92531 19.1498H5.94037M5.92531 19.1498H5.94037M5.94037 19.1498H5.95542M5.94037 19.1498H5.95542M5.95542 19.1498H5.97047M5.95542 19.1498H5.97047M5.97047 19.1498H5.98552M5.97047 19.1498H5.98552M5.98552 19.1498H6.00057M5.98552 19.1498H6.00057M6.00057 19.1498H6.01562M6.00057 19.1498H6.01562M6.01562 19.1498H6.03068M6.01562 19.1498H6.03068M6.03068 19.1498H6.04573M6.03068 19.1498H6.04573M6.04573 19.1498H6.06078M6.04573 19.1498H6.06078M6.06078 19.1498H6.07583M6.06078 19.1498H6.07583M6.07583 19.1498H6.09088M6.07583 19.1498H6.09088M6.09088 19.1498H6.10593M6.09088 19.1498H6.10593M6.10593 19.1498H6.12099M6.10593 19.1498H6.12099M6.12099 19.1498H6.13604M6.12099 19.1498H6.13604M6.13604 19.1498H6.15109M6.13604 19.1498H6.15109M6.15109 19.1498H6.16614M6.15109 19.1498H6.16614M6.16614 19.1498H6.18119M6.16614 19.1498H6.18119M6.18119 19.1498H6.19624M6.18119 19.1498H6.19624M6.19624 19.1498H6.2113M6.19624 19.1498H6.2113M6.2113 19.1498H6.22635M6.2113 19.1498H6.22635M6.22635 19.1498H6.2414M6.22635 19.1498H6.2414M6.2414 19.1498H6.25645M6.2414 19.1498H6.25645M6.25645 19.1498H6.2715M6.25645 19.1498H6.2715M6.2715 19.1498H6.28655M6.2715 19.1498H6.28655M6.28655 19.1498H6.30161M6.28655 19.1498H6.30161M6.30161 19.1498H6.31666M6.30161 19.1498H6.31666M6.31666 19.1498H6.33171M6.31666 19.1498H6.33171M6.33171 19.1498H6.34676M6.33171 19.1498H6.34676M6.34676 19.1498H6.36181M6.34676 19.1498H6.36181M6.36181 19.1498H6.37686M6.36181 19.1498H6.37686M6.37686 19.1498H6.39191M6.37686 19.1498H6.39191M6.39191 19.1498H6.40697M6.39191 19.1498H6.40697M6.40697 19.1498H6.42202M6.40697 19.1498H6.42202M6.42202 19.1498H6.43707M6.42202 19.1498H6.43707M6.43707 19.1498H6.45212M6.43707 19.1498H6.45212M6.45212 19.1498H6.46717M6.45212 19.1498H6.46717M6.46717 19.1498H6.48222M6.46717 19.1498H6.48222M6.48222 19.1498H6.49728M6.48222 19.1498H6.49728M6.49728 19.1498H6.51233M6.49728 19.1498H6.51233M6.51233 19.1498H6.52738M6.51233 19.1498H6.52738M6.52738 19.1498H6.54243M6.52738 19.1498H6.54243M6.54243 19.1498H6.55748M6.54243 19.1498H6.55748M6.55748 19.1498H6.57253M6.55748 19.1498H6.57253M6.57253 19.1498H6.58759M6.57253 19.1498H6.58759M6.58759 19.1498H6.60264M6.58759 19.1498H6.60264M6.60264 19.1498H6.61769M6.60264 19.1498H6.61769M6.61769 19.1498H6.63274M6.61769 19.1498H6.63274M6.63274 19.1498H6.64779M6.63274 19.1498H6.64779M6.64779 19.1498H6.66284M6.64779 19.1498H6.66284M6.66284 19.1498H6.6779M6.66284 19.1498H6.6779M6.6779 19.1498H6.69295M6.6779 19.1498H6.69295M6.69295 19.1498H6.708M6.69295 19.1498H6.708M6.708 19.1498H6.72305M6.708 19.1498H6.72305M6.72305 19.1498H6.7381M6.72305 19.1498H6.7381M6.7381 19.1498H6.75315M6.7381 19.1498H6.75315M6.75315 19.1498H6.76821M6.75315 19.1498H6.76821M6.76821 19.1498H6.78326M6.76821 19.1498H6.78326M6.78326 19.1498H6.79831M6.78326 19.1498H6.79831M6.79831 19.1498H6.81336M6.79831 19.1498H6.81336M6.81336 19.1498H6.82841M6.81336 19.1498H6.82841M6.82841 19.1498H6.84346M6.82841 19.1498H6.84346M6.84346 19.1498H6.85852M6.84346 19.1498H6.85852M6.85852 19.1498H6.87357M6.85852 19.1498H6.87357M6.87357 19.1498H6.88862M6.87357 19.1498H6.88862M6.88862 19.1498H6.90367M6.88862 19.1498H6.90367M6.90367 19.1498H6.91872M6.90367 19.1498H6.91872M6.91872 19.1498H6.93377M6.91872 19.1498H6.93377M6.93377 19.1498H6.94882M6.93377 19.1498H6.94882M6.94882 19.1498H6.96388M6.94882 19.1498H6.96388M6.96388 19.1498H6.97893M6.96388 19.1498H6.97893M6.97893 19.1498H6.99398M6.97893 19.1498H6.99398M6.99398 19.1498H7.00903M6.99398 19.1498H7.00903M7.00903 19.1498H7.02408M7.00903 19.1498H7.02408M7.02408 19.1498H7.03913M7.02408 19.1498H7.03913M7.03913 19.1498H7.05419M7.03913 19.1498H7.05419M7.05419 19.1498H7.06924M7.05419 19.1498H7.06924M7.06924 19.1498H7.08429M7.06924 19.1498H7.08429M7.08429 19.1498H7.09934M7.08429 19.1498H7.09934M7.09934 19.1498H7.11439M7.09934 19.1498H7.11439M7.11439 19.1498H7.12944M7.11439 19.1498H7.12944M7.12944 19.1498H7.1445M7.12944 19.1498H7.1445M7.1445 19.1498H7.15955M7.1445 19.1498H7.15955M7.15955 19.1498H7.1746M7.15955 19.1498H7.1746M7.1746 19.1498H7.18965M7.1746 19.1498H7.18965M7.18965 19.1498H7.2047M7.18965 19.1498H7.2047M7.2047 19.1498H7.21975M7.2047 19.1498H7.21975M7.21975 19.1498H7.23481M7.21975 19.1498H7.23481M7.23481 19.1498H7.24986M7.23481 19.1498H7.24986M7.24986 19.1498H7.26491M7.24986 19.1498H7.26491M7.26491 19.1498H7.27996M7.26491 19.1498H7.27996M7.27996 19.1498H7.29501M7.27996 19.1498H7.29501M7.29501 19.1498H7.31007M7.29501 19.1498H7.31007M7.31007 19.1498H7.32512M7.31007 19.1498H7.32512M7.32512 19.1498H7.34017M7.32512 19.1498H7.34017M7.34017 19.1498H7.35522M7.34017 19.1498H7.35522M7.35522 19.1498H7.37027M7.35522 19.1498H7.37027M7.37027 19.1498H7.38532M7.37027 19.1498H7.38532M7.38532 19.1498H7.40038M7.38532 19.1498H7.40038M7.40038 19.1498H7.41543M7.40038 19.1498H7.41543M7.41543 19.1498H7.43048M7.41543 19.1498H7.43048M7.43048 19.1498H7.44553M7.43048 19.1498H7.44553M7.44553 19.1498H7.46058M7.44553 19.1498H7.46058M7.46058 19.1498H7.47563M7.46058 19.1498H7.47563M7.47563 19.1498H7.49069M7.47563 19.1498H7.49069M7.49069 19.1498H7.50574M7.49069 19.1498H7.50574M7.50574 19.1498H7.52079M7.50574 19.1498H7.52079M7.52079 19.1498H7.53584M7.52079 19.1498H7.53584M7.53584 19.1498H7.55089M7.53584 19.1498H7.55089M7.55089 19.1498H7.56594M7.55089 19.1498H7.56594M7.56594 19.1498H7.581M7.56594 19.1498H7.581M7.581 19.1498H7.59605M7.581 19.1498H7.59605M7.59605 19.1498H7.6111M7.59605 19.1498H7.6111M7.6111 19.1498H7.62615M7.6111 19.1498H7.62615M7.62615 19.1498H7.6412M7.62615 19.1498H7.6412M7.6412 19.1498H7.65626M7.6412 19.1498H7.65626M7.65626 19.1498H7.67131M7.65626 19.1498H7.67131M7.67131 19.1498H7.68636M7.67131 19.1498H7.68636M7.68636 19.1498H7.70141M7.68636 19.1498H7.70141M7.70141 19.1498H7.71646M7.70141 19.1498H7.71646M7.71646 19.1498H7.73151M7.71646 19.1498H7.73151M7.73151 19.1498H7.74657M7.73151 19.1498H7.74657M7.74657 19.1498H7.76162M7.74657 19.1498H7.76162M7.76162 19.1498H7.77667M7.76162 19.1498H7.77667M7.77667 19.1498H7.79172M7.77667 19.1498H7.79172M7.79172 19.1498H7.80677M7.79172 19.1498H7.80677M7.80677 19.1498H7.82183M7.80677 19.1498H7.82183M7.82183 19.1498H7.83688M7.82183 19.1498H7.83688M7.83688 19.1498H7.85193M7.83688 19.1498H7.85193M7.85193 19.1498H7.86698M7.85193 19.1498H7.86698M7.86698 19.1498H7.88203M7.86698 19.1498H7.88203M7.88203 19.1498H7.89709M7.88203 19.1498H7.89709M7.89709 19.1498H7.91214M7.89709 19.1498H7.91214M7.91214 19.1498H7.92719M7.91214 19.1498H7.92719M7.92719 19.1498H7.94224M7.92719 19.1498H7.94224M7.94224 19.1498H7.95729M7.94224 19.1498H7.95729M7.95729 19.1498H7.97234M7.95729 19.1498H7.97234M7.97234 19.1498H7.9874M7.97234 19.1498H7.9874M7.9874 19.1498H8.00245M7.9874 19.1498H8.00245M8.00245 19.1498H8.0175M8.00245 19.1498H8.0175M8.0175 19.1498H8.03255M8.0175 19.1498H8.03255M8.03255 19.1498H8.0476M8.03255 19.1498H8.0476M8.0476 19.1498H8.06266M8.0476 19.1498H8.06266M8.06266 19.1498H8.07771M8.06266 19.1498H8.07771M8.07771 19.1498H8.09276M8.07771 19.1498H8.09276M8.09276 19.1498H8.10781M8.09276 19.1498H8.10781M8.10781 19.1498H8.12286M8.10781 19.1498H8.12286M8.12286 19.1498H8.13792M8.12286 19.1498H8.13792M8.13792 19.1498H8.15297M8.13792 19.1498H8.15297M8.15297 19.1498H8.16802M8.15297 19.1498H8.16802M8.16802 19.1498H8.18307M8.16802 19.1498H8.18307M8.18307 19.1498H8.19812M8.18307 19.1498H8.19812M8.19812 19.1498H8.21318M8.19812 19.1498H8.21318M8.21318 19.1498H8.22823M8.21318 19.1498H8.22823M8.22823 19.1498H8.24328M8.22823 19.1498H8.24328M8.24328 19.1498H8.25833M8.24328 19.1498H8.25833M8.25833 19.1498H8.27338M8.25833 19.1498H8.27338M8.27338 19.1498H8.28844M8.27338 19.1498H8.28844M8.28844 19.1498H8.30349M8.28844 19.1498H8.30349M8.30349 19.1498H8.31854M8.30349 19.1498H8.31854M8.31854 19.1498H8.33359M8.31854 19.1498H8.33359M8.33359 19.1498H8.34864M8.33359 19.1498H8.34864M8.34864 19.1498H8.3637M8.34864 19.1498H8.3637M8.3637 19.1498H8.37875M8.3637 19.1498H8.37875M8.37875 19.1498H8.3938M8.37875 19.1498H8.3938M8.3938 19.1498H8.40885M8.3938 19.1498H8.40885M8.40885 19.1498H8.42391M8.40885 19.1498H8.42391M8.42391 19.1498H8.43896M8.42391 19.1498H8.43896M8.43896 19.1498H8.45401M8.43896 19.1498H8.45401M8.45401 19.1498H8.46906M8.45401 19.1498H8.46906M8.46906 19.1498H8.48411M8.46906 19.1498H8.48411M8.48411 19.1498H8.49917M8.48411 19.1498H8.49917M8.49917 19.1498H8.51422M8.49917 19.1498H8.51422M8.51422 19.1498H8.52927M8.51422 19.1498H8.52927M8.52927 19.1498H8.54432M8.52927 19.1498H8.54432M8.54432 19.1498H8.55937M8.54432 19.1498H8.55937M8.55937 19.1498H8.57443M8.55937 19.1498H8.57443M8.57443 19.1498H8.58948M8.57443 19.1498H8.58948M8.58948 19.1498H8.60453M8.58948 19.1498H8.60453M8.60453 19.1498H8.61958M8.60453 19.1498H8.61958M8.61958 19.1498H8.63464M8.61958 19.1498H8.63464M8.63464 19.1498H8.64969M8.63464 19.1498H8.64969M8.64969 19.1498H8.66474M8.64969 19.1498H8.66474M8.66474 19.1498H8.67979M8.66474 19.1498H8.67979M8.67979 19.1498H8.69485M8.67979 19.1498H8.69485M8.69485 19.1498H8.7099M8.69485 19.1498H8.7099M8.7099 19.1498H8.72495M8.7099 19.1498H8.72495M8.72495 19.1498H8.74M8.72495 19.1498H8.74M8.74 19.1498H8.75505M8.74 19.1498H8.75505M8.75505 19.1498H8.77011M8.75505 19.1498H8.77011M8.77011 19.1498H8.78516M8.77011 19.1498H8.78516M8.78516 19.1498H8.80021M8.78516 19.1498H8.80021M8.80021 19.1498H8.81526M8.80021 19.1498H8.81526M8.81526 19.1498H8.83032M8.81526 19.1498H8.83032M8.83032 19.1498H8.84537M8.83032 19.1498H8.84537M8.84537 19.1498H8.86042M8.84537 19.1498H8.86042M8.86042 19.1498H8.87547M8.86042 19.1498H8.87547M8.87547 19.1498H8.89053M8.87547 19.1498H8.89053M8.89053 19.1498H8.90558M8.89053 19.1498H8.90558M8.90558 19.1498H8.92063M8.90558 19.1498H8.92063M8.92063 19.1498H8.93568M8.92063 19.1498H8.93568M8.93568 19.1498H8.95074M8.93568 19.1498H8.95074M8.95074 19.1498H8.96579M8.95074 19.1498H8.96579M8.96579 19.1498H8.98084M8.96579 19.1498H8.98084M8.98084 19.1498H8.99589M8.98084 19.1498H8.99589M8.99589 19.1498H9.01095M8.99589 19.1498H9.01095M9.01095 19.1498H9.026M9.01095 19.1498H9.026M9.026 19.1498H9.04105M9.026 19.1498H9.04105M9.04105 19.1498H9.0561M9.04105 19.1498H9.0561M9.0561 19.1498H9.07116M9.0561 19.1498H9.07116M9.07116 19.1498H9.08621M9.07116 19.1498H9.08621M9.08621 19.1498H9.10126M9.08621 19.1498H9.10126M9.10126 19.1498H9.11631M9.10126 19.1498H9.11631M9.11631 19.1498H9.13137M9.11631 19.1498H9.13137M9.13137 19.1498H9.14642M9.13137 19.1498H9.14642M9.14642 19.1498H9.16147M9.14642 19.1498H9.16147M9.16147 19.1498H9.17652M9.16147 19.1498H9.17652M9.17652 19.1498H9.19158M9.17652 19.1498H9.19158M9.19158 19.1498H9.20663M9.19158 19.1498H9.20663M9.20663 19.1498H9.22168M9.20663 19.1498H9.22168M9.22168 19.1498H9.23673M9.22168 19.1498H9.23673M9.23673 19.1498H9.25179M9.23673 19.1498H9.25179M9.25179 19.1498H9.26684M9.25179 19.1498H9.26684M9.26684 19.1498H9.28189M9.26684 19.1498H9.28189M9.28189 19.1498H9.29694M9.28189 19.1498H9.29694M9.29694 19.1498H9.312M9.29694 19.1498H9.312M9.312 19.1498H9.32705M9.312 19.1498H9.32705M9.32705 19.1498H9.3421M9.32705 19.1498H9.3421M9.3421 19.1498H9.35715M9.3421 19.1498H9.35715M9.35715 19.1498H9.37221M9.35715 19.1498H9.37221M9.37221 19.1498H9.38726M9.37221 19.1498H9.38726M9.38726 19.1498H9.40231M9.38726 19.1498H9.40231M9.40231 19.1498H9.41737M9.40231 19.1498H9.41737M9.41737 19.1498H9.43242M9.41737 19.1498H9.43242M9.43242 19.1498H9.44747M9.43242 19.1498H9.44747M9.44747 19.1498H9.46252M9.44747 19.1498H9.46252M9.46252 19.1498H9.47758M9.46252 19.1498H9.47758M9.47758 19.1498H9.49263M9.47758 19.1498H9.49263M9.49263 19.1498H9.50768M9.49263 19.1498H9.50768M9.50768 19.1498H9.52274M9.50768 19.1498H9.52274M9.52274 19.1498H9.53779M9.52274 19.1498H9.53779M9.53779 19.1498H9.55284M9.53779 19.1498H9.55284M9.55284 19.1498H9.56789M9.55284 19.1498H9.56789M9.56789 19.1498H9.58295M9.56789 19.1498H9.58295M9.58295 19.1498H9.598M9.58295 19.1498H9.598M9.598 19.1498H9.61305M9.598 19.1498H9.61305M9.61305 19.1498H9.62811M9.61305 19.1498H9.62811M9.62811 19.1498H9.64316M9.62811 19.1498H9.64316M9.64316 19.1498H9.65821M9.64316 19.1498H9.65821M9.65821 19.1498H9.67326M9.65821 19.1498H9.67326M9.67326 19.1498H9.68832M9.67326 19.1498H9.68832M9.68832 19.1498H9.70337M9.68832 19.1498H9.70337M9.70337 19.1498H9.71842M9.70337 19.1498H9.71842M9.71842 19.1498H9.73348M9.71842 19.1498H9.73348M9.73348 19.1498H9.74853M9.73348 19.1498H9.74853M9.74853 19.1498H9.76358M9.74853 19.1498H9.76358M9.76358 19.1498H9.77864M9.76358 19.1498H9.77864M9.77864 19.1498H9.79369M9.77864 19.1498H9.79369M9.79369 19.1498H9.80874M9.79369 19.1498H9.80874M9.80874 19.1498H9.8238M9.80874 19.1498H9.8238M9.8238 19.1498H9.83885M9.8238 19.1498H9.83885M9.83885 19.1498H9.8539M9.83885 19.1498H9.8539M9.8539 19.1498H9.86895M9.8539 19.1498H9.86895M9.86895 19.1498H9.88401M9.86895 19.1498H9.88401M9.88401 19.1498H9.89906M9.88401 19.1498H9.89906M9.89906 19.1498H9.91411M9.89906 19.1498H9.91411M9.91411 19.1498H9.92917M9.91411 19.1498H9.92917M9.92917 19.1498H9.94422M9.92917 19.1498H9.94422M9.94422 19.1498H9.95927M9.94422 19.1498H9.95927M9.95927 19.1498H9.97433M9.95927 19.1498H9.97433M9.97433 19.1498H9.98938M9.97433 19.1498H9.98938M9.98938 19.1498H10.0044M9.98938 19.1498H10.0044M10.0044 19.1498H10.0195M10.0044 19.1498H10.0195M10.0195 19.1498H10.0345M10.0195 19.1498H10.0345M10.0345 19.1498H10.0496M10.0345 19.1498H10.0496M10.0496 19.1498H10.0646M10.0496 19.1498H10.0646M10.0646 19.1498H10.0797M10.0646 19.1498H10.0797M10.0797 19.1498H10.0948M10.0797 19.1498H10.0948M10.0948 19.1498H10.1098M10.0948 19.1498H10.1098M10.1098 19.1498H10.1249M10.1098 19.1498H10.1249M10.1249 19.1498H10.1399M10.1249 19.1498H10.1399M10.1399 19.1498H10.155M10.1399 19.1498H10.155M10.155 19.1498H10.17M10.155 19.1498H10.17M10.17 19.1498H10.1851M10.17 19.1498H10.1851M10.1851 19.1498H10.2001M10.1851 19.1498H10.2001M10.2001 19.1498H10.2152M10.2001 19.1498H10.2152M10.2152 19.1498H10.2302M10.2152 19.1498H10.2302M10.2302 19.1498C10.8782 19.1498 11.5261 19.1498 12.1741 19.1498L10.2302 19.1498ZM17.9357 18.0841H17.9659H17.9357ZM17.9357 18.0841H17.9056M17.9357 18.0841H17.9056M17.9056 18.0841H17.8754M17.9056 18.0841H17.8754M17.8754 18.0841H17.8453M17.8754 18.0841H17.8453M17.8453 18.0841H17.8151M17.8453 18.0841H17.8151M17.8151 18.0841H17.785M17.8151 18.0841H17.785M17.785 18.0841H17.7548M17.785 18.0841H17.7548M17.7548 18.0841H17.7247M17.7548 18.0841H17.7247M17.7247 18.0841H17.6945M17.7247 18.0841H17.6945M17.6945 18.0841H17.6644M17.6945 18.0841H17.6644M17.6644 18.0841H17.6342M17.6644 18.0841H17.6342M17.6342 18.0841H17.6041M17.6342 18.0841H17.6041M17.6041 18.0841H17.5739M17.6041 18.0841H17.5739M17.5739 18.0841H17.5437M17.5739 18.0841H17.5437M17.5437 18.0841H17.5136M17.5437 18.0841H17.5136M17.5136 18.0841H17.4834M17.5136 18.0841H17.4834M17.4834 18.0841H17.4533M17.4834 18.0841H17.4533M17.4533 18.0841H17.4231M17.4533 18.0841H17.4231M17.4231 18.0841H17.393M17.4231 18.0841H17.393M17.393 18.0841H17.3628M17.393 18.0841H17.3628M17.3628 18.0841H17.3327M17.3628 18.0841H17.3327M17.3327 18.0841H17.3025M17.3327 18.0841H17.3025M17.3025 18.0841H17.2724M17.3025 18.0841H17.2724M17.2724 18.0841H17.2422M17.2724 18.0841H17.2422M17.2422 18.0841H17.2121M17.2422 18.0841H17.2121M17.2121 18.0841H17.1819M17.2121 18.0841H17.1819M17.1819 18.0841H17.1518M17.1819 18.0841H17.1518M17.1518 18.0841H17.1216M17.1518 18.0841H17.1216M17.1216 18.0841H17.0915M17.1216 18.0841H17.0915M17.0915 18.0841H17.0613M17.0915 18.0841H17.0613M17.0613 18.0841H17.0312M17.0613 18.0841H17.0312M17.0312 18.0841H17.001M17.0312 18.0841H17.001M17.001 18.0841H16.9709M17.001 18.0841H16.9709M16.9709 18.0841H16.9407M16.9709 18.0841H16.9407M16.9407 18.0841H16.9106M16.9407 18.0841H16.9106M16.9106 18.0841H16.8804M16.9106 18.0841H16.8804M16.8804 18.0841H16.8503M16.8804 18.0841H16.8503M16.8503 18.0841H16.8201M16.8503 18.0841H16.8201M16.8201 18.0841H16.79M16.8201 18.0841H16.79M16.79 18.0841H16.7598M16.79 18.0841H16.7598M16.7598 18.0841H16.7297M16.7598 18.0841H16.7297M16.7297 18.0841H16.6995M16.7297 18.0841H16.6995M16.6995 18.0841H16.6693M16.6995 18.0841H16.6693M16.6693 18.0841H16.6392M16.6693 18.0841H16.6392M16.6392 18.0841H16.609M16.6392 18.0841H16.609M16.609 18.0841H16.5789M16.609 18.0841H16.5789M16.5789 18.0841H16.5487M16.5789 18.0841H16.5487M16.5487 18.0841H16.5186M16.5487 18.0841H16.5186M16.5186 18.0841H16.4884M16.5186 18.0841H16.4884M16.4884 18.0841H16.4583M16.4884 18.0841H16.4583M16.4583 18.0841H16.4281M16.4583 18.0841H16.4281M16.4281 18.0841H16.398M16.4281 18.0841H16.398M16.398 18.0841H16.3678M16.398 18.0841H16.3678M16.3678 18.0841H16.3377M16.3678 18.0841H16.3377M16.3377 18.0841H16.3075M16.3377 18.0841H16.3075M16.3075 18.0841H16.2774M16.3075 18.0841H16.2774M16.2774 18.0841H16.2472M16.2774 18.0841H16.2472M16.2472 18.0841H16.2171M16.2472 18.0841H16.2171M16.2171 18.0841H16.1869M16.2171 18.0841H16.1869M16.1869 18.0841H16.1568M16.1869 18.0841H16.1568M16.1568 18.0841H16.1266M16.1568 18.0841H16.1266M16.1266 18.0841H16.0965M16.1266 18.0841H16.0965M16.0965 18.0841H16.0663M16.0965 18.0841H16.0663M16.0663 18.0841H16.0362M16.0663 18.0841H16.0362M16.0362 18.0841H16.006M16.0362 18.0841H16.006M16.006 18.0841H15.9759M16.006 18.0841H15.9759M15.9759 18.0841H15.9457M15.9759 18.0841H15.9457M15.9457 18.0841H15.9156M15.9457 18.0841H15.9156M15.9156 18.0841H15.8854M15.9156 18.0841H15.8854M15.8854 18.0841H15.8553M15.8854 18.0841H15.8553M15.8553 18.0841H15.8251M15.8553 18.0841H15.8251M15.8251 18.0841H15.795M15.8251 18.0841H15.795M15.795 18.0841H15.7648M15.795 18.0841H15.7648M15.7648 18.0841H15.7347M15.7648 18.0841H15.7347M15.7347 18.0841H15.7045M15.7347 18.0841H15.7045M15.7045 18.0841H15.6744M15.7045 18.0841H15.6744M15.6744 18.0841H15.6442M15.6744 18.0841H15.6442M15.6442 18.0841H15.614M15.6442 18.0841H15.614M15.614 18.0841H15.5839M15.614 18.0841H15.5839M15.5839 18.0841H15.5537M15.5839 18.0841H15.5537M15.5537 18.0841H15.5236M15.5537 18.0841H15.5236M15.5236 18.0841H15.4934M15.5236 18.0841H15.4934M15.4934 18.0841H15.4633M15.4934 18.0841H15.4633M15.4633 18.0841H15.4331M15.4633 18.0841H15.4331M15.4331 18.0841H15.403M15.4331 18.0841H15.403M15.403 18.0841H15.3728M15.403 18.0841H15.3728M15.3728 18.0841H15.3427M15.3728 18.0841H15.3427M15.3427 18.0841H15.3125M15.3427 18.0841H15.3125M15.3125 18.0841H15.2824M15.3125 18.0841H15.2824M15.2824 18.0841H15.2522M15.2824 18.0841H15.2522M15.2522 18.0841H15.2221M15.2522 18.0841H15.2221M15.2221 18.0841H15.1919M15.2221 18.0841H15.1919M15.1919 18.0841H15.1618M15.1919 18.0841H15.1618M15.1618 18.0841H15.1316M15.1618 18.0841H15.1316M15.1316 18.0841H15.1015M15.1316 18.0841H15.1015M15.1015 18.0841H15.0713M15.1015 18.0841H15.0713M15.0713 18.0841H15.0412M15.0713 18.0841H15.0412M15.0412 18.0841H15.011M15.0412 18.0841H15.011M15.011 18.0841H14.9809M15.011 18.0841H14.9809M14.9809 18.0841H14.9507M14.9809 18.0841H14.9507M14.9507 18.0841H14.9206M14.9507 18.0841H14.9206M14.9206 18.0841H14.8904M14.9206 18.0841H14.8904M14.8904 18.0841H14.8603M14.8904 18.0841H14.8603M14.8603 18.0841H14.8301M14.8603 18.0841H14.8301M14.8301 18.0841H14.8M14.8301 18.0841H14.8M14.8 18.0841H14.7698M14.8 18.0841H14.7698M14.7698 18.0841H14.7397M14.7698 18.0841H14.7397M14.7397 18.0841H14.7095M14.7397 18.0841H14.7095M14.7095 18.0841H14.6794M14.7095 18.0841H14.6794M14.6794 18.0841H14.6492M14.6794 18.0841H14.6492M14.6492 18.0841H14.6191M14.6492 18.0841H14.6191M14.6191 18.0841H14.5889M14.6191 18.0841H14.5889M14.5889 18.0841H14.5588M14.5889 18.0841H14.5588M14.5588 18.0841H14.5286M14.5588 18.0841H14.5286M14.5286 18.0841H14.4985M14.5286 18.0841H14.4985M14.4985 18.0841H14.4683M14.4985 18.0841H14.4683M14.4683 18.0841H14.4382M14.4683 18.0841H14.4382M14.4382 18.0841H14.408M14.4382 18.0841H14.408M14.408 18.0841H14.3779M14.408 18.0841H14.3779M14.3779 18.0841H14.3477M14.3779 18.0841H14.3477M14.3477 18.0841H14.3176M14.3477 18.0841H14.3176M14.3176 18.0841H14.2874M14.3176 18.0841H14.2874M14.2874 18.0841H14.2573M14.2874 18.0841H14.2573M14.2573 18.0841H14.2271M14.2573 18.0841H14.2271M14.2271 18.0841H14.197M14.2271 18.0841H14.197M14.197 18.0841H14.1668M14.197 18.0841H14.1668M14.1668 18.0841H14.1367M14.1668 18.0841H14.1367M14.1367 18.0841H14.1065M14.1367 18.0841H14.1065M14.1065 18.0841H14.0764M14.1065 18.0841H14.0764M14.0764 18.0841H14.0462M14.0764 18.0841H14.0462M14.0462 18.0841H14.0161M14.0462 18.0841H14.0161M14.0161 18.0841H13.9859M14.0161 18.0841H13.9859M13.9859 18.0841H13.9558M13.9859 18.0841H13.9558M13.9558 18.0841H13.9256M13.9558 18.0841H13.9256M13.9256 18.0841H13.8954M13.9256 18.0841H13.8954M13.8954 18.0841H13.8653M13.8954 18.0841H13.8653M13.8653 18.0841H13.8351M13.8653 18.0841H13.8351M13.8351 18.0841H13.805M13.8351 18.0841H13.805M13.805 18.0841H13.7748M13.805 18.0841H13.7748M13.7748 18.0841H13.7447M13.7748 18.0841H13.7447M13.7447 18.0841H13.7145M13.7447 18.0841H13.7145M13.7145 18.0841H13.6844M13.7145 18.0841H13.6844M13.6844 18.0841H13.6542M13.6844 18.0841H13.6542M13.6542 18.0841H13.6241M13.6542 18.0841H13.6241M13.6241 18.0841H13.5939M13.6241 18.0841H13.5939M13.5939 18.0841H13.5638M13.5939 18.0841H13.5638M13.5638 18.0841H13.5336M13.5638 18.0841H13.5336M13.5336 18.0841H13.5035M13.5336 18.0841H13.5035M13.5035 18.0841H13.4733M13.5035 18.0841H13.4733M13.4733 18.0841H13.4432M13.4733 18.0841H13.4432M13.4432 18.0841H13.413M13.4432 18.0841H13.413M13.413 18.0841H13.3829M13.413 18.0841H13.3829M13.3829 18.0841H13.3527M13.3829 18.0841H13.3527M13.3527 18.0841H13.3226M13.3527 18.0841H13.3226M13.3226 18.0841H13.2924M13.3226 18.0841H13.2924M13.2924 18.0841H13.2623M13.2924 18.0841H13.2623M13.2623 18.0841H13.2321M13.2623 18.0841H13.2321M13.2321 18.0841H13.202M13.2321 18.0841H13.202M13.202 18.0841H13.1718M13.202 18.0841H13.1718M13.1718 18.0841H13.1417M13.1718 18.0841H13.1417M13.1417 18.0841H13.1115M13.1417 18.0841H13.1115M13.1115 18.0841H13.0814M13.1115 18.0841H13.0814M13.0814 18.0841H13.0512M13.0814 18.0841H13.0512M13.0512 18.0841H13.0211M13.0512 18.0841H13.0211M13.0211 18.0841H12.9909M13.0211 18.0841H12.9909M12.9909 18.0841H12.9608M12.9909 18.0841H12.9608M12.9608 18.0841H12.9306M12.9608 18.0841H12.9306M12.9306 18.0841H12.9005M12.9306 18.0841H12.9005M12.9005 18.0841H12.8703M12.9005 18.0841H12.8703M12.8703 18.0841H12.8402M12.8703 18.0841H12.8402M12.8402 18.0841H12.81M12.8402 18.0841H12.81M12.81 18.0841H12.7799M12.81 18.0841H12.7799M12.7799 18.0841H12.7497M12.7799 18.0841H12.7497M12.7497 18.0841H12.7196M12.7497 18.0841H12.7196M12.7196 18.0841H12.6894M12.7196 18.0841H12.6894M12.6894 18.0841H12.6593M12.6894 18.0841H12.6593M12.6593 18.0841H12.6291M12.6593 18.0841H12.6291M12.6291 18.0841H12.599M12.6291 18.0841H12.599M12.599 18.0841H12.5688M12.599 18.0841H12.5688M12.5688 18.0841H12.5387M12.5688 18.0841H12.5387M12.5387 18.0841H12.5085M12.5387 18.0841H12.5085M12.5085 18.0841H12.4784M12.5085 18.0841H12.4784M12.4784 18.0841H12.4482M12.4784 18.0841H12.4482M12.4482 18.0841H12.4181M12.4482 18.0841H12.4181M12.4181 18.0841H12.3879M12.4181 18.0841H12.3879M12.3879 18.0841H12.3578M12.3879 18.0841H12.3578M12.3578 18.0841H12.3276M12.3578 18.0841H12.3276M12.3276 18.0841H12.2975M12.3276 18.0841H12.2975M12.2975 18.0841H12.2673M12.2975 18.0841H12.2673M12.2673 18.0841H12.2372M12.2673 18.0841H12.2372M12.2372 18.0841H12.207M12.2372 18.0841H12.207M12.207 18.0841H12.1769M12.207 18.0841H12.1769M12.1769 18.0841H12.1467M12.1769 18.0841H12.1467M12.1467 18.0841H12.1166M12.1467 18.0841H12.1166M12.1166 18.0841H12.0864M12.1166 18.0841H12.0864M12.0864 18.0841H12.0563M12.0864 18.0841H12.0563M12.0563 18.0841H12.0261M12.0563 18.0841H12.0261M12.0261 18.0841H11.996M12.0261 18.0841H11.996M11.996 18.0841H11.9658M11.996 18.0841H11.9658M11.9658 18.0841H11.9357M11.9658 18.0841H11.9357M11.9357 18.0841H11.9055M11.9357 18.0841H11.9055M11.9055 18.0841H11.8754M11.9055 18.0841H11.8754M11.8754 18.0841H11.8452M11.8754 18.0841H11.8452M11.8452 18.0841H11.8151M11.8452 18.0841H11.8151M11.8151 18.0841H11.7849M11.8151 18.0841H11.7849M11.7849 18.0841H11.7548M11.7849 18.0841H11.7548M11.7548 18.0841H11.7246M11.7548 18.0841H11.7246M11.7246 18.0841H11.6945M11.7246 18.0841H11.6945M11.6945 18.0841H11.6643M11.6945 18.0841H11.6643M11.6643 18.0841H11.6342M11.6643 18.0841H11.6342M11.6342 18.0841H11.604M11.6342 18.0841H11.604M11.604 18.0841H11.5739M11.604 18.0841H11.5739M11.5739 18.0841H11.5437M11.5739 18.0841H11.5437M11.5437 18.0841H11.5136M11.5437 18.0841H11.5136M11.5136 18.0841H11.4834M11.5136 18.0841H11.4834M11.4834 18.0841H11.4533M11.4834 18.0841H11.4533M11.4533 18.0841H11.4231M11.4533 18.0841H11.4231M11.4231 18.0841H11.393M11.4231 18.0841H11.393M11.393 18.0841H11.3628M11.393 18.0841H11.3628M11.3628 18.0841H11.3327M11.3628 18.0841H11.3327M11.3327 18.0841H11.3025M11.3327 18.0841H11.3025M11.3025 18.0841H11.2724M11.3025 18.0841H11.2724M11.2724 18.0841H11.2422M11.2724 18.0841H11.2422M11.2422 18.0841H11.2121M11.2422 18.0841H11.2121M11.2121 18.0841H11.1819M11.2121 18.0841H11.1819M11.1819 18.0841H11.1518M11.1819 18.0841H11.1518M11.1518 18.0841H11.1216M11.1518 18.0841H11.1216M11.1216 18.0841H11.0915M11.1216 18.0841H11.0915M11.0915 18.0841H11.0613M11.0915 18.0841H11.0613M11.0613 18.0841H11.0312M11.0613 18.0841H11.0312M11.0312 18.0841H11.001M11.0312 18.0841H11.001M11.001 18.0841H10.9709M11.001 18.0841H10.9709M10.9709 18.0841H10.9407M10.9709 18.0841H10.9407M10.9407 18.0841H10.9106M10.9407 18.0841H10.9106M10.9106 18.0841H10.8804M10.9106 18.0841H10.8804M10.8804 18.0841H10.8503M10.8804 18.0841H10.8503M10.8503 18.0841H10.8201M10.8503 18.0841H10.8201M10.8201 18.0841H10.79M10.8201 18.0841H10.79M10.79 18.0841H10.7598M10.79 18.0841H10.7598M10.7598 18.0841H10.7297M10.7598 18.0841H10.7297M10.7297 18.0841H10.6995M10.7297 18.0841H10.6995M10.6995 18.0841H10.6694M10.6995 18.0841H10.6694M10.6694 18.0841H10.6392M10.6694 18.0841H10.6392M10.6392 18.0841H10.6091M10.6392 18.0841H10.6091M10.6091 18.0841H10.5789M10.6091 18.0841H10.5789M10.5789 18.0841H10.5488M10.5789 18.0841H10.5488M10.5488 18.0841H10.5186M10.5488 18.0841H10.5186M10.5186 18.0841H10.4885M10.5186 18.0841H10.4885M10.4885 18.0841H10.4583M10.4885 18.0841H10.4583M10.4583 18.0841H10.4282M10.4583 18.0841H10.4282M10.4282 18.0841H10.398M10.4282 18.0841H10.398M10.398 18.0841H10.3679M10.398 18.0841H10.3679M10.3679 18.0841H10.3377M10.3679 18.0841H10.3377M10.3377 18.0841H10.3076M10.3377 18.0841H10.3076M10.3076 18.0841H10.2774M10.3076 18.0841H10.2774M10.2774 18.0841H10.2473M10.2774 18.0841H10.2473M10.2473 18.0841H10.2171M10.2473 18.0841H10.2171M10.2171 18.0841H10.187M10.2171 18.0841H10.187M10.187 18.0841H10.1568M10.187 18.0841H10.1568M10.1568 18.0841H10.1267M10.1568 18.0841H10.1267M10.1267 18.0841H10.0965M10.1267 18.0841H10.0965M10.0965 18.0841H10.0664M10.0965 18.0841H10.0664M10.0664 18.0841H10.0362M10.0664 18.0841H10.0362M10.0362 18.0841H10.0061M10.0362 18.0841H10.0061M10.0061 18.0841H9.9759M10.0061 18.0841H9.9759M9.9759 18.0841H9.94575M9.9759 18.0841H9.94575M9.94575 18.0841H9.9156M9.94575 18.0841H9.9156M9.9156 18.0841H9.88545M9.9156 18.0841H9.88545M9.88545 18.0841H9.8553M9.88545 18.0841H9.8553M9.8553 18.0841H9.82515M9.8553 18.0841H9.82515M9.82515 18.0841H9.795M9.82515 18.0841H9.795M9.795 18.0841H9.76485M9.795 18.0841H9.76485M9.76485 18.0841H9.7347M9.76485 18.0841H9.7347M9.7347 18.0841H9.70455M9.7347 18.0841H9.70455M9.70455 18.0841H9.6744M9.70455 18.0841H9.6744M9.6744 18.0841H9.64425M9.6744 18.0841H9.64425M9.64425 18.0841H9.6141M9.64425 18.0841H9.6141M9.6141 18.0841H9.58395M9.6141 18.0841H9.58395M9.58395 18.0841H9.5538M9.58395 18.0841H9.5538M9.5538 18.0841H9.52365M9.5538 18.0841H9.52365M9.52365 18.0841H9.4935M9.52365 18.0841H9.4935M9.4935 18.0841H9.46335M9.4935 18.0841H9.46335M9.46335 18.0841H9.4332M9.46335 18.0841H9.4332M9.4332 18.0841H9.40305M9.4332 18.0841H9.40305M9.40305 18.0841H9.3729M9.40305 18.0841H9.3729M9.3729 18.0841H9.34275M9.3729 18.0841H9.34275M9.34275 18.0841H9.3126M9.34275 18.0841H9.3126M9.3126 18.0841H9.28244M9.3126 18.0841H9.28244M9.28244 18.0841H9.2523M9.28244 18.0841H9.2523M9.2523 18.0841H9.22215M9.2523 18.0841H9.22215M9.22215 18.0841H9.19199M9.22215 18.0841H9.19199M9.19199 18.0841H9.16184M9.19199 18.0841H9.16184M9.16184 18.0841H9.13169M9.16184 18.0841H9.13169M9.13169 18.0841H9.10154M9.13169 18.0841H9.10154M9.10154 18.0841H9.07139M9.10154 18.0841H9.07139M9.07139 18.0841H9.04124M9.07139 18.0841H9.04124M9.04124 18.0841H9.01109M9.04124 18.0841H9.01109M9.01109 18.0841H8.98094M9.01109 18.0841H8.98094M8.98094 18.0841H8.95079M8.98094 18.0841H8.95079M8.95079 18.0841H8.92064M8.95079 18.0841H8.92064M8.92064 18.0841H8.89049M8.92064 18.0841H8.89049M8.89049 18.0841H8.86034M8.89049 18.0841H8.86034M8.86034 18.0841H8.83019M8.86034 18.0841H8.83019M8.83019 18.0841H8.80004M8.83019 18.0841H8.80004M8.80004 18.0841H8.76989M8.80004 18.0841H8.76989M8.76989 18.0841H8.73974M8.76989 18.0841H8.73974M8.73974 18.0841H8.70959M8.73974 18.0841H8.70959M8.70959 18.0841H8.67944M8.70959 18.0841H8.67944M8.67944 18.0841H8.64929M8.67944 18.0841H8.64929M8.64929 18.0841H8.61914M8.64929 18.0841H8.61914M8.61914 18.0841H8.58899M8.61914 18.0841H8.58899M8.58899 18.0841H8.55884M8.58899 18.0841H8.55884M8.55884 18.0841H8.52869M8.55884 18.0841H8.52869M8.52869 18.0841H8.49854M8.52869 18.0841H8.49854M8.49854 18.0841H8.46839M8.49854 18.0841H8.46839M8.46839 18.0841H8.43824M8.46839 18.0841H8.43824M8.43824 18.0841H8.40809M8.43824 18.0841H8.40809M8.40809 18.0841H8.37794M8.40809 18.0841H8.37794M8.37794 18.0841H8.34779M8.37794 18.0841H8.34779M8.34779 18.0841H8.31764M8.34779 18.0841H8.31764M8.31764 18.0841H8.28749M8.31764 18.0841H8.28749M8.28749 18.0841H8.25733M8.28749 18.0841H8.25733M8.25733 18.0841H8.22718M8.25733 18.0841H8.22718M8.22718 18.0841H8.19703M8.22718 18.0841H8.19703M8.19703 18.0841H8.16688M8.19703 18.0841H8.16688M8.16688 18.0841H8.13673M8.16688 18.0841H8.13673M8.13673 18.0841H8.10658M8.13673 18.0841H8.10658M8.10658 18.0841H8.07643M8.10658 18.0841H8.07643M8.07643 18.0841H8.04628M8.07643 18.0841H8.04628M8.04628 18.0841H8.01613M8.04628 18.0841H8.01613M8.01613 18.0841H7.98598M8.01613 18.0841H7.98598M7.98598 18.0841H7.95583M7.98598 18.0841H7.95583M7.95583 18.0841H7.92568M7.95583 18.0841H7.92568M7.92568 18.0841H7.89553M7.92568 18.0841H7.89553M7.89553 18.0841H7.86538M7.89553 18.0841H7.86538M7.86538 18.0841H7.83523M7.86538 18.0841H7.83523M7.83523 18.0841H7.80508M7.83523 18.0841H7.80508M7.80508 18.0841H7.77493M7.80508 18.0841H7.77493M7.77493 18.0841H7.74478M7.77493 18.0841H7.74478M7.74478 18.0841H7.71463M7.74478 18.0841H7.71463M7.71463 18.0841H7.68448M7.71463 18.0841H7.68448M7.68448 18.0841H7.65433M7.68448 18.0841H7.65433M7.65433 18.0841H7.62418M7.65433 18.0841H7.62418M7.62418 18.0841H7.59403M7.62418 18.0841H7.59403M7.59403 18.0841H7.56388M7.59403 18.0841H7.56388M7.56388 18.0841H7.53372M7.56388 18.0841H7.53372M7.53372 18.0841H7.50357M7.53372 18.0841H7.50357M7.50357 18.0841H7.47342M7.50357 18.0841H7.47342M7.47342 18.0841H7.44327M7.47342 18.0841H7.44327M7.44327 18.0841H7.41312M7.44327 18.0841H7.41312M7.41312 18.0841H7.38297M7.41312 18.0841H7.38297M7.38297 18.0841H7.35282M7.38297 18.0841H7.35282M7.35282 18.0841H7.32267M7.35282 18.0841H7.32267M7.32267 18.0841H7.29252M7.32267 18.0841H7.29252M7.29252 18.0841H7.26237M7.29252 18.0841H7.26237M7.26237 18.0841H7.23222M7.26237 18.0841H7.23222M7.23222 18.0841H7.20207M7.23222 18.0841H7.20207M7.20207 18.0841H7.17192M7.20207 18.0841H7.17192M7.17192 18.0841H7.14177M7.17192 18.0841H7.14177M7.14177 18.0841H7.11162M7.14177 18.0841H7.11162M7.11162 18.0841H7.08147M7.11162 18.0841H7.08147M7.08147 18.0841H7.05132M7.08147 18.0841H7.05132M7.05132 18.0841H7.02117M7.05132 18.0841H7.02117M7.02117 18.0841H6.99102M7.02117 18.0841H6.99102M6.99102 18.0841H6.96086M6.99102 18.0841H6.96086M6.96086 18.0841H6.93071M6.96086 18.0841H6.93071M6.93071 18.0841H6.90056M6.93071 18.0841H6.90056M6.90056 18.0841H6.87041M6.90056 18.0841H6.87041M6.87041 18.0841H6.84026M6.87041 18.0841H6.84026M6.84026 18.0841H6.81011M6.84026 18.0841H6.81011M6.81011 18.0841H6.77996M6.81011 18.0841H6.77996M6.77996 18.0841H6.74981M6.77996 18.0841H6.74981M6.74981 18.0841H6.71966M6.74981 18.0841H6.71966M6.71966 18.0841H6.68951M6.71966 18.0841H6.68951M6.68951 18.0841H6.65936M6.68951 18.0841H6.65936M6.65936 18.0841H6.62921M6.65936 18.0841H6.62921M6.62921 18.0841H6.59906M6.62921 18.0841H6.59906M6.59906 18.0841H6.56891M6.59906 18.0841H6.56891M6.56891 18.0841H6.53876M6.56891 18.0841H6.53876M6.53876 18.0841H6.50861M6.53876 18.0841H6.50861M6.50861 18.0841H6.47845M6.50861 18.0841H6.47845M6.47845 18.0841H6.4483M6.47845 18.0841H6.4483M6.4483 18.0841H6.41815M6.4483 18.0841H6.41815M6.41815 18.0841H6.388M6.41815 18.0841H6.388M6.388 18.0841H6.35785M6.388 18.0841H6.35785M6.35785 18.0841H6.3277M6.35785 18.0841H6.3277M6.3277 18.0841H6.29755M6.3277 18.0841H6.29755M6.29755 18.0841H6.2674M6.29755 18.0841H6.2674M6.2674 18.0841H6.23725M6.2674 18.0841H6.23725M6.23725 18.0841H6.2071M6.23725 18.0841H6.2071M6.2071 18.0841H6.17695M6.2071 18.0841H6.17695M6.17695 18.0841H6.1468M6.17695 18.0841H6.1468M6.1468 18.0841H6.11665M6.1468 18.0841H6.11665M6.11665 18.0841H6.08649M6.11665 18.0841H6.08649M6.08649 18.0841H6.05634M6.08649 18.0841H6.05634M6.05634 18.0841H6.02619M6.05634 18.0841H6.02619M6.02619 18.0841H5.99604M6.02619 18.0841H5.99604M5.99604 18.0841H5.96589M5.99604 18.0841H5.96589M5.96589 18.0841H5.93574M5.96589 18.0841H5.93574M5.93574 18.0841H5.90559M5.93574 18.0841H5.90559M5.90559 18.0841H5.87544M5.90559 18.0841H5.87544M5.87544 18.0841H5.84529M5.87544 18.0841H5.84529M5.84529 18.0841H5.81514M5.84529 18.0841H5.81514M5.81514 18.0841H5.78499M5.81514 18.0841H5.78499M5.78499 18.0841H5.75484M5.78499 18.0841H5.75484M5.75484 18.0841H5.72468M5.75484 18.0841H5.72468M5.72468 18.0841H5.69453M5.72468 18.0841H5.69453M5.69453 18.0841H5.66438M5.69453 18.0841H5.66438M5.66438 18.0841H5.63423M5.66438 18.0841H5.63423M5.63423 18.0841H5.60408M5.63423 18.0841H5.60408M5.60408 18.0841H5.57393M5.60408 18.0841H5.57393M5.57393 18.0841H5.54378M5.57393 18.0841H5.54378M5.54378 18.0841H5.51363M5.54378 18.0841H5.51363M5.51363 18.0841H5.48348M5.51363 18.0841H5.48348M5.48348 18.0841H5.45333H5.48348ZM18.7373 13.8127L18.5908 13.7801L18.5907 13.7807L18.7373 13.8127Z" fill="#364B58" stroke="#364B58" stroke-width="0.3"/>
<path d="M21.7227 4.8743L21.7225 4.8743C21.7199 6.16523 21.6642 7.25467 21.3776 8.32337L21.3776 8.32338C21.0776 9.44161 20.3883 10.3026 19.5769 11.0571L19.5769 11.0571C18.8583 11.725 18.0501 12.2672 17.1806 12.7153L17.1805 12.7153C17.0112 12.8024 16.7934 12.892 16.5422 12.7641L16.542 12.764C15.1538 12.0555 13.9224 11.1441 12.9844 9.86771L12.9844 9.86768C12.3342 8.98241 12.0935 7.9692 11.9806 6.93273M21.7227 4.8743L11.9806 6.93273M21.7227 4.8743L21.7223 4.86714M21.7227 4.8743L21.7223 4.86714M11.9806 6.93273C11.8482 5.71906 11.8672 4.50672 11.9745 3.29686L11.9806 6.93273ZM21.7223 4.86714C21.7191 4.79626 21.7156 4.70785 21.7115 4.60702C21.7014 4.35287 21.6881 4.01974 21.6683 3.68905C21.6564 3.49022 21.6467 3.33188 21.6266 3.2099C21.6064 3.08755 21.5726 2.97773 21.4952 2.89141C21.4174 2.80452 21.3135 2.76158 21.2008 2.73139C21.1067 2.70621 20.9881 2.68561 20.8476 2.66118C20.822 2.65673 20.7957 2.65216 20.7686 2.64741C19.4421 2.41388 18.2532 1.86703 17.2003 1.02657L17.2002 1.02647C17.0784 0.929507 16.9537 0.856559 16.8142 0.850311C16.67 0.843852 16.5462 0.909671 16.43 1.00347L16.4299 1.00353M21.7223 4.86714L16.4299 1.00353M16.4299 1.00353C15.2848 1.92888 13.9765 2.4816 12.5191 2.70753C12.3568 2.73267 12.2145 2.77645 12.1157 2.88613M16.4299 1.00353L12.1157 2.88613M16.852 2.10215L16.8518 2.10203C16.831 2.0868 16.8179 2.0808 16.8111 2.07848C16.8079 2.07738 16.8062 2.07712 16.8056 2.07704L16.8042 2.07703C16.8003 2.07744 16.7838 2.08104 16.7351 2.11608L16.7351 2.11609C15.6298 2.91196 14.4032 3.4355 13.0634 3.69158L13.0633 3.69161C13.0254 3.69882 13.0121 3.70645 13.0089 3.70878L16.852 2.10215ZM16.852 2.10215C17.9678 2.916 19.2108 3.43939 20.566 3.69985L20.5943 3.55254M16.852 2.10215L12.9975 3.77263C12.936 4.83699 12.9212 5.89414 13.0506 6.94537L13.0506 6.94542C13.1453 7.71752 13.3093 8.446 13.7404 9.08711L13.7404 9.08712C14.5045 10.2239 15.5686 11.0194 16.7699 11.6769C16.7705 11.677 16.7714 11.6771 16.7723 11.6772C16.7796 11.6778 16.7911 11.6777 16.8062 11.6756C16.8375 11.6711 16.8691 11.6604 16.8885 11.65L16.959 11.7824M16.959 11.7824L16.8882 11.6502C17.5946 11.272 18.2491 10.821 18.8332 10.2784L18.8332 10.2784C19.4898 9.66842 20.0514 9.01087 20.2994 8.1651L20.2994 8.16507C20.7253 6.71369 20.6787 5.22472 20.5969 3.70895C20.5831 3.70402 20.5737 3.70133 20.5659 3.69982L20.5943 3.55254M16.959 11.7824C17.6751 11.399 18.3405 10.9408 18.9353 10.3882C19.5981 9.77251 20.1839 9.09232 20.4434 8.20731C20.8865 6.69698 20.8262 5.15092 20.7414 3.60359M16.959 11.7824C16.8871 11.8207 16.765 11.8456 16.7027 11.8112C15.4882 11.1469 14.3995 10.3366 13.6159 9.1708L20.7414 3.60359M20.5943 3.55254C20.6256 3.55858 20.6557 3.57046 20.6895 3.58383C20.7058 3.59023 20.7229 3.59698 20.7414 3.60359M20.5943 3.55254L20.7414 3.60359M12.1157 2.88613C12.0183 2.99439 11.9884 3.13951 11.9745 3.29683L12.1157 2.88613ZM16.6475 1.99436C15.5601 2.77728 14.3539 3.29221 13.0353 3.54425L16.6475 1.99436Z" fill="#364B58" stroke="#364B58" stroke-width="0.3"/>
<path d="M11.1113 15.7018L11.1112 15.7019C11.009 16.3701 10.3963 16.8426 9.73139 16.8469C8.02112 16.8577 6.31128 16.8597 4.60064 16.8463L4.60059 16.8463C3.80663 16.8398 3.20274 16.1796 3.16041 15.4079L3.16041 15.4079C3.07705 13.8793 3.91121 12.6748 5.20826 12.1659C4.64039 11.5123 4.38981 10.7449 4.5671 9.85489L11.1113 15.7018ZM11.1113 15.7018C11.1747 15.2859 11.1704 14.8333 11.0793 14.4182C10.838 13.3147 10.149 12.582 9.12598 12.1698M11.1113 15.7018L9.12598 12.1698M9.12598 12.1698C10.2417 10.8562 9.84963 9.33203 9.0723 8.54354L9.07225 8.54349C8.12402 7.58255 6.6264 7.47174 5.54377 8.29594C5.02353 8.69184 4.69377 9.21828 4.5671 9.85486L9.12598 12.1698ZM9.62133 15.7857L9.62119 15.7857C9.03713 15.7884 8.45295 15.7879 7.86842 15.7874C7.63449 15.7872 7.4005 15.7869 7.16645 15.7869C6.9369 15.7869 6.70747 15.7871 6.47812 15.7872C5.90499 15.7874 5.33235 15.7877 4.75959 15.7863C4.553 15.7857 4.43011 15.7357 4.35705 15.6623C4.28377 15.5886 4.23401 15.4648 4.23285 15.2578L4.23285 15.2578C4.22888 14.5872 4.45517 14.0311 4.84081 13.6432C5.22641 13.2554 5.78169 13.0255 6.45517 13.0267H6.45529C6.60846 13.0269 6.76049 13.0251 6.91147 13.0233C7.41138 13.0173 7.89977 13.0114 8.37978 13.0777L8.37987 13.0777C9.46831 13.2271 10.2421 14.3099 10.0956 15.4053L10.0956 15.4054C10.0796 15.5249 10.0272 15.617 9.9511 15.68C9.87436 15.7435 9.76419 15.7851 9.62133 15.7857ZM7.17094 8.81352C8.03862 8.81352 8.74874 9.52096 8.74932 10.3845C8.74991 11.2477 8.04379 11.9537 7.17227 11.9579C6.30115 11.9614 5.58585 11.2573 5.58228 10.3986C5.57935 9.52268 6.28855 8.81352 7.17094 8.81352Z" fill="#364B58" stroke="#364B58" stroke-width="0.3"/>
<path d="M13.0436 15.7876L13.0436 15.7876C13.5066 15.7866 13.9701 15.7867 14.4337 15.7869C14.5883 15.7869 14.7429 15.7869 14.8975 15.7869C15.0693 15.7869 15.2412 15.7868 15.4131 15.7867L13.0436 15.7876ZM13.0436 15.7876C12.8703 15.7879 12.7131 15.8284 12.596 15.9219C12.4743 16.0189 12.4135 16.1595 12.4135 16.3191H12.5635L12.4135 16.3187C12.413 16.4786 12.4739 16.6195 12.5952 16.717C12.7121 16.811 12.8693 16.852 13.0425 16.852L13.0436 15.7876ZM17.1512 15.9223C17.0343 15.8287 16.8772 15.788 16.7041 15.7876L16.703 16.852C16.703 16.852 16.703 16.852 16.7031 16.852C16.8763 16.852 17.0335 16.811 17.1506 16.7172C17.272 16.6201 17.3334 16.4795 17.3334 16.3198C17.3334 16.1601 17.2726 16.0196 17.1512 15.9223Z" fill="#364B58" stroke="#364B58" stroke-width="0.3"/>
<path d="M15.1946 14.4042C14.9312 14.407 14.6676 14.4065 14.4038 14.4059C14.2983 14.4057 14.1928 14.4055 14.0873 14.4055C13.9811 14.4055 13.8749 14.4058 13.7687 14.4061C13.5137 14.4067 13.2586 14.4074 13.0037 14.4042C12.7359 14.4011 12.5689 14.2549 12.5631 14.031L15.1959 14.5542L15.1946 14.4042ZM15.1946 14.4042C15.4733 14.4017 15.6474 14.2447 15.6416 14.0131M15.1946 14.4042L15.1961 14.5542C15.1961 14.5542 15.1961 14.5542 15.196 14.5542C14.9317 14.557 14.6667 14.5565 14.4026 14.5559C14.2973 14.5557 14.1921 14.5555 14.0873 14.5555C13.982 14.5555 13.8763 14.5558 13.7703 14.5561C13.5148 14.5567 13.2579 14.5574 13.0019 14.5542L15.6416 14.0131M15.6416 14.0131L15.7915 14.0097C15.7881 13.8587 15.7284 13.7243 15.6173 13.6293C15.5082 13.536 15.3622 13.4912 15.2017 13.4905L15.2016 13.4905C14.4708 13.4873 13.7395 13.4879 13.009 13.4905L13.0088 13.4905C12.8423 13.4912 12.6911 13.5384 12.5801 13.6364C12.4668 13.7365 12.4093 13.8777 12.4132 14.0347L12.4132 14.0348M15.6416 14.0131L12.4132 14.0348M12.4132 14.0348C12.4171 14.1857 12.4768 14.3196 12.5877 14.4144M12.4132 14.0348L12.5877 14.4144M12.5877 14.4144C12.6965 14.5074 12.842 14.5523 13.0019 14.5542L12.5877 14.4144Z" fill="#364B58" stroke="#364B58" stroke-width="0.3"/>
<path d="M16.4492 7.43081L16.4491 7.43086C16.4166 7.46315 16.3837 7.49438 16.3463 7.52952C16.2613 7.4445 16.1769 7.36004 16.0929 7.27603C15.7238 6.90672 15.3636 6.54627 15.0015 6.18661C14.8793 6.0652 14.739 5.98453 14.5904 5.96786C14.4371 5.95064 14.2938 6.00399 14.1799 6.11458L14.1798 6.11462C14.0652 6.22598 14.0033 6.3662 14.0189 6.52217C14.0338 6.67176 14.1177 6.81093 14.2406 6.93384L14.2407 6.9339C14.7958 7.48788 15.3521 8.04059 15.9097 8.59201C16.039 8.72012 16.1804 8.81519 16.3448 8.81793C16.5108 8.82069 16.6531 8.72872 16.7823 8.60109L16.7823 8.60108C17.6419 7.75158 18.4982 6.89957 19.3538 6.04707L19.354 6.04688C19.4711 5.9298 19.5468 5.79215 19.5611 5.6467C19.5758 5.49784 19.5243 5.35686 19.4168 5.24567C19.3054 5.13047 19.165 5.06772 19.0089 5.0818C18.8586 5.09533 18.7184 5.17777 18.5947 5.30002L18.5945 5.30014C18.1538 5.73645 17.7138 6.1739 17.2739 6.61129C16.999 6.88458 16.7242 7.15786 16.4492 7.43081Z" fill="#364B58" stroke="#364B58" stroke-width="0.3"/>
</svg>
