<svg width="12" height="10" viewBox="0 0 12 10" fill="none" xmlns="http://www.w3.org/2000/svg">
<path d="M10.7467 1.35467L10.7544 1.36268L10.7624 1.37033C10.7943 1.40067 10.8207 1.43843 10.8391 1.48171L11.2977 1.28706L10.8391 1.48172C10.8574 1.52503 10.8672 1.57241 10.8672 1.62072C10.8672 1.66903 10.8574 1.7164 10.8391 1.75972L11.2993 1.95506L10.8391 1.75972C10.8207 1.80301 10.7943 1.84076 10.7624 1.8711L10.7551 1.87805L10.7481 1.88529L4.15943 8.68529L4.15943 8.68528L4.15801 8.68676C4.12866 8.7173 4.0946 8.74066 4.05825 8.75629C4.02194 8.7719 3.98358 8.77971 3.94524 8.77971C3.90689 8.77971 3.86853 8.7719 3.83222 8.75629C3.79587 8.74066 3.76182 8.7173 3.73247 8.68676L3.73247 8.68676L3.73104 8.68529L0.630478 5.48529L0.630532 5.48523L0.624405 5.47913C0.592978 5.44779 0.567009 5.40953 0.548724 5.36612C0.530428 5.32267 0.520394 5.27538 0.519584 5.22707C0.518775 5.17875 0.527217 5.13105 0.544099 5.08684L0.0769934 4.90848L0.544099 5.08684C0.560972 5.04265 0.58574 5.00332 0.61625 4.97072C0.64673 4.93816 0.682275 4.913 0.720403 4.8959L0.515764 4.43969L0.720404 4.8959C0.758492 4.87881 0.798858 4.86989 0.839324 4.86916C0.879787 4.86844 0.920339 4.87592 0.958825 4.89158L1.14218 4.44077L0.958826 4.89158C0.996288 4.90681 1.03154 4.9297 1.06233 4.95973L3.58559 7.57224L3.9449 7.94426L4.30456 7.57257L10.32 1.35591L10.3212 1.35467C10.3505 1.32413 10.3846 1.30078 10.4209 1.28515C10.4572 1.26953 10.4956 1.26172 10.5339 1.26172C10.5723 1.26172 10.6106 1.26953 10.647 1.28515C10.6833 1.30078 10.7174 1.32413 10.7467 1.35467Z" fill="black" stroke="#4CAF50"/>
</svg>
