<svg width="98" height="70" viewBox="0 0 98 70" fill="none" xmlns="http://www.w3.org/2000/svg">
<path d="M84.3632 61.0999H13.0323C10.0252 61.0999 7.58789 58.669 7.58789 55.6699V15.3299C7.58789 12.3308 10.0252 9.8999 13.0323 9.8999H84.3632C87.3698 9.8999 89.8076 12.3308 89.8076 15.3299V55.6703C89.8072 58.669 87.3698 61.0999 84.3632 61.0999Z" fill="#FFFFFC"/>
<path d="M84.1458 9.8999H13.2497C10.1228 9.8999 7.58789 12.4281 7.58789 15.5463V20.3687H89.8072V15.5463C89.8072 12.4281 87.2723 9.8999 84.1458 9.8999Z" fill="#C5CFD5"/>
<path d="M81.3761 12.4858H14.5122V15.85H81.3761V12.4858Z" fill="white"/>
<path d="M81.3761 16.9351H14.5122V17.9686H81.3761V16.9351Z" fill="white"/>
<path d="M51.9164 23.7175H39.1436V26.2599H51.9164V23.7175Z" fill="#D5DAD7"/>
<path d="M71.7869 27.5142H39.1436V29.6348H71.7869V27.5142Z" fill="#D5DAD7"/>
<path d="M57.5834 31.8335H39.1436V34.3758H57.5834V31.8335Z" fill="#D5DAD7"/>
<path d="M68.8718 35.6301H39.1436V37.7508H68.8718V35.6301Z" fill="#D5DAD7"/>
<path d="M64.9135 39.9492H39.1436V42.4915H64.9135V39.9492Z" fill="#D5DAD7"/>
<path d="M51.7686 43.7454H39.1436V45.866H51.7686V43.7454Z" fill="#D5DAD7"/>
<path d="M51.9164 48.0652H39.1436V50.6075H51.9164V48.0652Z" fill="#D5DAD7"/>
<path d="M71.7869 51.8613H39.1436V53.982H71.7869V51.8613Z" fill="#D5DAD7"/>
<path d="M35.4388 22.8516H11.4609V55.7539H35.4388V22.8516Z" fill="#DEE6DA"/>
<path d="M20.418 45.875L20.6607 57.4601L23.7516 59.9069L27.0388 57.2643L26.9408 46.1565C26.9404 46.1565 25.6703 42.6578 20.418 45.875Z" fill="white"/>
<path d="M23.9687 51.8502H23.2104L22.4194 48.9163H24.7601L23.9687 51.8502Z" fill="#E08663"/>
<path d="M25.9814 60.1227H21.1978L23.2252 51.658H23.9539L25.9814 60.1227Z" fill="#E08663"/>
<path d="M17.1587 39.1415C18.2908 39.1415 19.2085 38.1232 19.2085 36.867C19.2085 35.6109 18.2908 34.5925 17.1587 34.5925C16.0266 34.5925 15.1089 35.6109 15.1089 36.867C15.1089 38.1232 16.0266 39.1415 17.1587 39.1415Z" fill="#FEBDA3"/>
<path d="M30.208 39.1415C31.3401 39.1415 32.2578 38.1232 32.2578 36.867C32.2578 35.6109 31.3401 34.5925 30.208 34.5925C29.0759 34.5925 28.1582 35.6109 28.1582 36.867C28.1582 38.1232 29.0759 39.1415 30.208 39.1415Z" fill="#FEBDA3"/>
<path d="M26.9325 41.0898H20.4346V48.8741H26.9325V41.0898Z" fill="#FED5C4"/>
<path d="M20.4346 44.5849C21.4318 45.013 22.5291 45.2525 23.6835 45.2525C24.8375 45.2525 25.9353 45.0134 26.9325 44.5849V41.0896H20.4346V44.5849Z" fill="#FEBDA3"/>
<path d="M25.7253 43.7686H21.8882C19.1183 43.7686 16.8726 41.5288 16.8726 38.7662V31.2995C16.8726 28.5369 19.1179 26.2971 21.8882 26.2971H25.7253C28.4952 26.2971 30.741 28.5369 30.741 31.2995V38.7662C30.741 41.5292 28.4952 43.7686 25.7253 43.7686Z" fill="#FED5C4"/>
<path d="M18.7162 28.419C18.7162 28.419 25.1054 34.1803 27.9935 33.3074C30.8815 32.4346 30.7943 35.839 30.7943 35.839C30.7943 35.839 32.7195 31.7365 32.1945 30.2522C31.7567 29.0147 31.7567 27.2844 28.6938 26.4985C25.6304 25.713 17.5785 21.8723 18.7162 28.419Z" fill="#59524F"/>
<path d="M17.3282 26.8041C17.3282 26.8041 14.6919 27.0839 15.1315 29.6035C15.571 32.1231 16.801 36.0418 16.801 36.0418C16.801 36.0418 20.5798 30.6298 19.8764 28.8571C19.1731 27.0843 18.7344 26.4309 17.3282 26.8041Z" fill="#59524F"/>
<path d="M22.3643 33.6216C22.3643 33.6216 23.3597 33.7968 23.2424 35.4903C23.1252 37.1837 22.5984 38.8772 23.3009 38.9355C24.0033 38.9938 24.2964 38.585 24.2964 38.585C24.2964 38.585 24.2379 39.8696 23.0667 39.4608C21.8955 39.052 22.5396 36.9498 22.7741 35.9574C23.0083 34.9645 22.3643 33.6216 22.3643 33.6216Z" fill="#FEBDA3"/>
<path d="M20.4241 45.875L23.7152 48.9971L20.3438 50.9982L20.4241 45.875Z" fill="#E0E0E0"/>
<path d="M26.9429 45.875L23.6519 48.9971L27.0233 50.9982L26.9429 45.875Z" fill="#E0E0E0"/>
<path d="M20.3909 45.687C20.3939 45.8751 23.8134 60.3865 23.8134 60.3865H9.86426V49.2655L20.3909 45.687Z" fill="#45454F"/>
<path d="M26.9762 45.687C26.9732 45.8751 23.5537 60.3865 23.5537 60.3865H37.5025V49.2655L26.9762 45.687Z" fill="#45454F"/>
<g opacity="0.43">
<path d="M64.3613 26.6165V48.004H82.6718V26.6165H64.3613ZM73.9299 43.7995C70.2255 43.7995 67.2227 40.8047 67.2227 37.1101C67.2227 33.4156 70.2255 30.4207 73.9299 30.4207C77.6343 30.4207 80.637 33.4156 80.637 37.1101C80.637 40.8043 77.6343 43.7995 73.9299 43.7995Z" fill="#A4B7C4"/>
<path d="M73.9835 42.1939C76.8283 42.1939 79.1345 39.8938 79.1345 37.0565C79.1345 34.2193 76.8283 31.9192 73.9835 31.9192C71.1387 31.9192 68.8325 34.2193 68.8325 37.0565C68.8325 39.8938 71.1387 42.1939 73.9835 42.1939Z" fill="#A4B7C4"/>
</g>
<path d="M40.3355 55.5735H39.3911V58.9557H40.3355V55.5735Z" fill="#A6A6A6"/>
<path d="M43.6943 55.5735H40.7964V58.9557H43.6943V55.5735Z" fill="#A6A6A6"/>
<path d="M44.2057 55.5735H43.9272V58.9557H44.2057V55.5735Z" fill="#A6A6A6"/>
<path d="M46.0816 55.5735H45.8032V58.9557H46.0816V55.5735Z" fill="#A6A6A6"/>
<path d="M47.9571 55.5735H47.6787V58.9557H47.9571V55.5735Z" fill="#A6A6A6"/>
<path d="M49.2379 55.5735H48.9595V58.9557H49.2379V55.5735Z" fill="#A6A6A6"/>
<path d="M50.5191 55.5735H50.2402V58.9557H50.5191V55.5735Z" fill="#A6A6A6"/>
<path d="M52.3946 55.5735H52.1162V58.9557H52.3946V55.5735Z" fill="#A6A6A6"/>
<path d="M53.6754 55.5735H53.397V58.9557H53.6754V55.5735Z" fill="#A6A6A6"/>
<path d="M54.9561 55.5735H54.6772V58.9557H54.9561V55.5735Z" fill="#A6A6A6"/>
<path d="M56.2364 55.5735H55.958V58.9557H56.2364V55.5735Z" fill="#A6A6A6"/>
<path d="M58.1124 55.5735H57.834V58.9557H58.1124V55.5735Z" fill="#A6A6A6"/>
<path d="M61.291 55.5735H59.71V58.9557H61.291V55.5735Z" fill="#A6A6A6"/>
<path d="M64.1773 55.5735H63.5269V58.9557H64.1773V55.5735Z" fill="#A6A6A6"/>
<path d="M25.25 3.5H6C3.79086 3.5 2 5.29086 2 7.5V19.5M71.7499 67.5H90.9999C93.209 67.5 94.9999 65.7091 94.9999 63.5V51.5" stroke="#CDCDCD"/>
<path d="M71.75 3.5H91C93.2091 3.5 95 5.29086 95 7.5V19.5M25.2501 67.5H6.00011C3.79097 67.5 2.00011 65.7091 2.00011 63.5V51.5" stroke="#CDCDCD"/>
</svg>
