<svg width="14" height="18" viewBox="0 0 14 18" fill="none" xmlns="http://www.w3.org/2000/svg">
<path d="M1.4 3.1275V12.75C1.39986 13.7021 1.73773 14.6186 2.34506 15.3136C2.95239 16.0086 3.78371 16.43 4.6704 16.4925L4.9 16.5H11.0796C10.9349 16.9386 10.6668 17.3184 10.3123 17.587C9.95774 17.8557 9.53422 17.9999 9.1 18H4.2C3.08609 18 2.0178 17.5259 1.23015 16.682C0.442499 15.8381 2.88731e-07 14.6935 2.88731e-07 13.5V5.25C-0.000227472 4.78451 0.134299 4.3304 0.385039 3.95026C0.63578 3.57012 0.990391 3.28266 1.4 3.1275ZM11.9 0C12.457 0 12.9911 0.237053 13.3849 0.65901C13.7788 1.08097 14 1.65326 14 2.25V12.75C14 13.3467 13.7788 13.919 13.3849 14.341C12.9911 14.7629 12.457 15 11.9 15H4.9C4.34305 15 3.8089 14.7629 3.41508 14.341C3.02125 13.919 2.8 13.3467 2.8 12.75V2.25C2.8 1.65326 3.02125 1.08097 3.41508 0.65901C3.8089 0.237053 4.34305 0 4.9 0H11.9ZM11.9 1.5H4.9C4.71435 1.5 4.5363 1.57902 4.40503 1.71967C4.27375 1.86032 4.2 2.05109 4.2 2.25V12.75C4.2 12.9489 4.27375 13.1397 4.40503 13.2803C4.5363 13.421 4.71435 13.5 4.9 13.5H11.9C12.0857 13.5 12.2637 13.421 12.395 13.2803C12.5263 13.1397 12.6 12.9489 12.6 12.75V2.25C12.6 2.05109 12.5263 1.86032 12.395 1.71967C12.2637 1.57902 12.0857 1.5 11.9 1.5Z" fill="black"/>
</svg>
