<svg width="22" height="22" viewBox="0 0 22 22" fill="none" xmlns="http://www.w3.org/2000/svg">
<g clip-path="url(#clip0_4468_306)">
<path fill-rule="evenodd" clip-rule="evenodd" d="M3.28375 10.6567L12.7386 1.18017C14.1382 -0.219426 16.5669 -0.219846 17.9671 1.17891L18.7682 2.02339L18.7707 2.02591C20.1707 3.42592 20.1707 5.83396 18.7707 7.23397L9.31575 16.6889C9.01285 16.9918 8.62602 17.1772 8.23164 17.2816L4.33224 18.0614L4.32943 18.062C4.2915 18.0705 4.2598 18.0779 4.23195 18.0845L4.23168 18.0845C4.11295 18.1125 4.0644 18.1239 3.90343 18.1239C3.41544 18.1239 2.84383 17.9189 2.45958 17.5347C1.97246 17.0476 1.76709 16.3773 1.86837 15.6808L2.69087 11.7415C2.79502 11.3478 3.00174 10.9387 3.28375 10.6567ZM15.2965 2.0385C15.7683 2.0385 16.2445 2.20604 16.5778 2.55068L16.5786 2.55156L17.401 3.37392C17.7928 3.76565 17.9937 4.24384 17.9937 4.72482C17.9937 5.20563 17.7929 5.67875 17.4005 6.06001L17.3996 6.06087L7.93725 15.5667L3.68947 16.2785L4.51565 12.0558L13.9999 2.54986C14.3434 2.20631 14.8243 2.0385 15.2965 2.0385Z" fill="#515358"/>
<path fill-rule="evenodd" clip-rule="evenodd" d="M1.87036 20.6448C1.87036 20.3606 1.96288 20.1368 2.11529 19.9844C2.2677 19.832 2.4915 19.7394 2.77574 19.7394H18.7798C19.2331 19.7394 19.6867 20.0989 19.7069 20.6471C19.7056 21.1828 19.2646 21.5502 18.6931 21.5502H2.77574C2.32079 21.5502 1.87036 21.1898 1.87036 20.6448Z" fill="#515358"/>
</g>
<defs>
<clipPath id="clip0_4468_306">
<rect width="21.6857" height="21.6857" fill="white"/>
</clipPath>
</defs>
</svg>
