<svg width="15" height="16" viewBox="0 0 15 16" fill="none" xmlns="http://www.w3.org/2000/svg">
<ellipse cx="7.38033" cy="8" rx="7.2021" ry="8" fill="#F44336"/>
<path fill-rule="evenodd" clip-rule="evenodd" d="M10.399 5.35355C10.5748 5.15829 10.5748 4.84171 10.399 4.64645C10.2232 4.45118 9.93821 4.45118 9.76242 4.64645L7.37992 7.29289L4.99743 4.64645C4.82164 4.45118 4.53663 4.45118 4.36084 4.64645C4.18506 4.84171 4.18506 5.15829 4.36084 5.35355L6.74334 8L4.36084 10.6464C4.18506 10.8417 4.18506 11.1583 4.36084 11.3536C4.53663 11.5488 4.82164 11.5488 4.99743 11.3536L7.37992 8.70711L9.76242 11.3536C9.93821 11.5488 10.2232 11.5488 10.399 11.3536C10.5748 11.1583 10.5748 10.8417 10.399 10.6464L8.01651 8L10.399 5.35355Z" fill="white"/>
</svg>
