<svg width="58" height="58" viewBox="0 0 58 58" fill="none" xmlns="http://www.w3.org/2000/svg">
<g filter="url(#filter0_d_4456_341)">
<rect x="15" y="11" width="28" height="28" rx="14" fill="#F05F53"/>
<path d="M36.625 25.1875C36.625 29.625 33.5938 32.75 29.125 32.75C24.8125 32.75 21.375 29.3125 21.375 25C21.375 20.7188 24.8125 17.25 29.125 17.25C31.1875 17.25 32.9688 18.0312 34.3125 19.2812L32.1875 21.3125C29.4375 18.6562 24.3125 20.6562 24.3125 25C24.3125 27.7188 26.4688 29.9062 29.125 29.9062C32.1875 29.9062 33.3438 27.7188 33.5 26.5625H29.125V23.9062H36.5C36.5625 24.3125 36.625 24.6875 36.625 25.1875Z" fill="white"/>
</g>
<defs>
<filter id="filter0_d_4456_341" x="0" y="0" width="58" height="58" filterUnits="userSpaceOnUse" color-interpolation-filters="sRGB">
<feFlood flood-opacity="0" result="BackgroundImageFix"/>
<feColorMatrix in="SourceAlpha" type="matrix" values="0 0 0 0 0 0 0 0 0 0 0 0 0 0 0 0 0 0 127 0" result="hardAlpha"/>
<feOffset dy="4"/>
<feGaussianBlur stdDeviation="7.5"/>
<feComposite in2="hardAlpha" operator="out"/>
<feColorMatrix type="matrix" values="0 0 0 0 1 0 0 0 0 0 0 0 0 0 0 0 0 0 0.54 0"/>
<feBlend mode="normal" in2="BackgroundImageFix" result="effect1_dropShadow_4456_341"/>
<feBlend mode="normal" in="SourceGraphic" in2="effect1_dropShadow_4456_341" result="shape"/>
</filter>
</defs>
</svg>
