<svg width="16" height="16" viewBox="0 0 16 16" fill="none" xmlns="http://www.w3.org/2000/svg">
<ellipse cx="8.1103" cy="8" rx="7.2021" ry="8" fill="#4CAF50"/>
<mask id="path-2-inside-1_4662_2033" fill="white">
<path d="M11.1304 5.60493C11.0885 5.55807 11.0388 5.52087 10.9839 5.49548C10.929 5.4701 10.8702 5.45703 10.8108 5.45703C10.7514 5.45703 10.6925 5.4701 10.6377 5.49548C10.5828 5.52087 10.533 5.55807 10.4912 5.60493L7.13772 9.33493L5.72881 7.76493C5.68536 7.71831 5.63408 7.68165 5.57787 7.65705C5.52167 7.63245 5.46166 7.62039 5.40126 7.62155C5.34086 7.62271 5.28126 7.63707 5.22586 7.66382C5.17046 7.69056 5.12034 7.72917 5.07837 7.77743C5.0364 7.82569 5.0034 7.88266 4.98125 7.94509C4.9591 8.00752 4.94824 8.07418 4.94929 8.14127C4.95033 8.20836 4.96326 8.27456 4.98734 8.3361C5.01142 8.39764 5.04618 8.45331 5.08962 8.49993L6.81813 10.4199C6.85997 10.4668 6.90976 10.504 6.96461 10.5294C7.01946 10.5548 7.0783 10.5678 7.13772 10.5678C7.19714 10.5678 7.25598 10.5548 7.31083 10.5294C7.36568 10.504 7.41547 10.4668 7.45731 10.4199L11.1304 6.33993C11.1761 6.29311 11.2125 6.23628 11.2375 6.17303C11.2624 6.10978 11.2753 6.04148 11.2753 5.97243C11.2753 5.90338 11.2624 5.83508 11.2375 5.77183C11.2125 5.70858 11.1761 5.65175 11.1304 5.60493Z"/>
</mask>
<path d="M11.1304 5.60493C11.0885 5.55807 11.0388 5.52087 10.9839 5.49548C10.929 5.4701 10.8702 5.45703 10.8108 5.45703C10.7514 5.45703 10.6925 5.4701 10.6377 5.49548C10.5828 5.52087 10.533 5.55807 10.4912 5.60493L7.13772 9.33493L5.72881 7.76493C5.68536 7.71831 5.63408 7.68165 5.57787 7.65705C5.52167 7.63245 5.46166 7.62039 5.40126 7.62155C5.34086 7.62271 5.28126 7.63707 5.22586 7.66382C5.17046 7.69056 5.12034 7.72917 5.07837 7.77743C5.0364 7.82569 5.0034 7.88266 4.98125 7.94509C4.9591 8.00752 4.94824 8.07418 4.94929 8.14127C4.95033 8.20836 4.96326 8.27456 4.98734 8.3361C5.01142 8.39764 5.04618 8.45331 5.08962 8.49993L6.81813 10.4199C6.85997 10.4668 6.90976 10.504 6.96461 10.5294C7.01946 10.5548 7.0783 10.5678 7.13772 10.5678C7.19714 10.5678 7.25598 10.5548 7.31083 10.5294C7.36568 10.504 7.41547 10.4668 7.45731 10.4199L11.1304 6.33993C11.1761 6.29311 11.2125 6.23628 11.2375 6.17303C11.2624 6.10978 11.2753 6.04148 11.2753 5.97243C11.2753 5.90338 11.2624 5.83508 11.2375 5.77183C11.2125 5.70858 11.1761 5.65175 11.1304 5.60493Z" fill="black"/>
<path d="M10.4912 5.60493L11.2348 6.27351L11.2371 6.27097L10.4912 5.60493ZM7.13772 9.33493L6.39346 10.0028L7.13703 10.8314L7.88137 10.0035L7.13772 9.33493ZM5.72881 7.76493L6.47307 7.09704L6.46678 7.09003L6.46037 7.08315L5.72881 7.76493ZM5.08962 8.49993L5.83282 7.83086L5.82706 7.82445L5.82118 7.81815L5.08962 8.49993ZM6.81813 10.4199L7.56405 9.75389L7.56133 9.75086L6.81813 10.4199ZM7.45731 10.4199L6.71411 9.75085L6.7114 9.75389L7.45731 10.4199ZM11.1304 6.33993L10.4147 5.64152L10.4006 5.65591L10.3872 5.67086L11.1304 6.33993ZM11.8763 4.93889C11.7471 4.79422 11.5876 4.67299 11.4039 4.58795L10.5639 6.40302C10.4899 6.36874 10.43 6.32191 10.3845 6.27097L11.8763 4.93889ZM11.4039 4.58795C11.2197 4.50273 11.0178 4.45703 10.8108 4.45703V6.45703C10.7226 6.45703 10.6384 6.43747 10.5639 6.40302L11.4039 4.58795ZM10.8108 4.45703C10.6038 4.45703 10.4019 4.50273 10.2177 4.58795L11.0577 6.40302C10.9832 6.43747 10.899 6.45703 10.8108 6.45703V4.45703ZM10.2177 4.58795C10.0339 4.67299 9.87446 4.79422 9.74528 4.93889L11.2371 6.27097C11.1916 6.32191 11.1317 6.36874 11.0577 6.40302L10.2177 4.58795ZM9.74756 4.93635L6.39408 8.66635L7.88137 10.0035L11.2348 6.27351L9.74756 4.93635ZM7.88198 8.66704L6.47307 7.09704L4.98455 8.43282L6.39346 10.0028L7.88198 8.66704ZM6.46037 7.08315C6.32756 6.94065 6.16495 6.82243 5.97888 6.74098L5.17686 8.57313C5.1032 8.54088 5.04317 8.49598 4.99726 8.44671L6.46037 7.08315ZM5.97888 6.74098C5.79243 6.65936 5.58923 6.61775 5.38205 6.62173L5.42047 8.62136C5.33409 8.62302 5.25092 8.60554 5.17686 8.57313L5.97888 6.74098ZM5.38205 6.62173C5.17489 6.62571 4.97379 6.67507 4.79109 6.76327L5.66062 8.56436C5.58873 8.59907 5.50683 8.6197 5.42047 8.62136L5.38205 6.62173ZM4.79109 6.76327C4.60879 6.85129 4.45111 6.97482 4.32379 7.12122L5.83295 8.43364C5.78957 8.48352 5.73213 8.52984 5.66062 8.56436L4.79109 6.76327ZM4.32379 7.12122C4.19665 7.26742 4.10134 7.43448 4.03881 7.61073L5.9237 8.27945C5.90547 8.33084 5.87615 8.38396 5.83295 8.43364L4.32379 7.12122ZM4.03881 7.61073C3.9763 7.78692 3.94653 7.97219 3.94941 8.15684L5.94917 8.1257C5.94995 8.17617 5.94191 8.22811 5.9237 8.27945L4.03881 7.61073ZM3.94941 8.15684C3.95228 8.34149 3.98781 8.52598 4.05609 8.70048L5.91859 7.97172C5.93872 8.02315 5.94838 8.07522 5.94917 8.1257L3.94941 8.15684ZM4.05609 8.70048C4.1244 8.87505 4.22546 9.03942 4.35807 9.18171L5.82118 7.81815C5.86689 7.8672 5.89845 7.92024 5.91859 7.97172L4.05609 8.70048ZM4.34643 9.169L6.07493 11.089L7.56133 9.75086L5.83282 7.83086L4.34643 9.169ZM6.07221 11.086C6.20139 11.2306 6.36087 11.3519 6.54463 11.4369L7.38459 9.62184C7.45865 9.65611 7.51856 9.70295 7.56405 9.75389L6.07221 11.086ZM6.54463 11.4369C6.72879 11.5221 6.93072 11.5678 7.13772 11.5678V9.56783C7.22588 9.56783 7.31014 9.58739 7.38459 9.62184L6.54463 11.4369ZM7.13772 11.5678C7.34473 11.5678 7.54665 11.5221 7.73081 11.4369L6.89085 9.62184C6.9653 9.58739 7.04956 9.56783 7.13772 9.56783V11.5678ZM7.73081 11.4369C7.91458 11.3519 8.07405 11.2306 8.20323 11.086L6.7114 9.75389C6.75689 9.70295 6.81679 9.65611 6.89085 9.62184L7.73081 11.4369ZM8.20051 11.089L11.8736 7.009L10.3872 5.67086L6.71412 9.75086L8.20051 11.089ZM11.8461 7.03834C11.9883 6.89262 12.096 6.72185 12.1678 6.53986L10.3072 5.8062C10.3291 5.75071 10.3639 5.6936 10.4147 5.64152L11.8461 7.03834ZM12.1678 6.53986C12.2395 6.35795 12.2753 6.16505 12.2753 5.97243H10.2753C10.2753 5.91791 10.2853 5.86162 10.3072 5.8062L12.1678 6.53986ZM12.2753 5.97243C12.2753 5.77981 12.2395 5.58691 12.1678 5.405L10.3072 6.13866C10.2853 6.08324 10.2753 6.02695 10.2753 5.97243H12.2753ZM12.1678 5.405C12.096 5.22301 11.9883 5.05224 11.8461 4.90652L10.4147 6.30334C10.3639 6.25126 10.3291 6.19415 10.3072 6.13866L12.1678 5.405Z" fill="white" mask="url(#path-2-inside-1_4662_2033)"/>
</svg>
