<svg width="19" height="19" viewBox="0 0 19 19" fill="none" xmlns="http://www.w3.org/2000/svg">
<path d="M6.65714 7.6V17.9714M1 17.0286V1.94286C1 1.6928 1.09934 1.45298 1.27616 1.27616C1.45298 1.09934 1.6928 1 1.94286 1H17.0286C17.2786 1 17.5185 1.09934 17.6953 1.27616C17.8721 1.45298 17.9714 1.6928 17.9714 1.94286V17.0286C17.9714 17.2786 17.8721 17.5185 17.6953 17.6953C17.5185 17.8721 17.2786 17.9714 17.0286 17.9714H1.94286C1.6928 17.9714 1.45298 17.8721 1.27616 17.6953C1.09934 17.5185 1 17.2786 1 17.0286ZM9.58 1L13.3514 7.6L9.58 1ZM17.9714 7.6H1H17.9714Z" stroke="#515255" stroke-width="1.88571" stroke-linecap="round" stroke-linejoin="round"/>
</svg>
