<svg width="36" height="48" viewBox="0 0 36 48" fill="none" xmlns="http://www.w3.org/2000/svg">
<path d="M16.125 47.0166C16.9688 48.3278 18.9375 48.3278 19.7812 47.0166C33.4688 27.3483 36 25.2878 36 17.9824C36 8.05463 27.9375 0 18 0C7.96875 0 0 8.05463 0 17.9824C0 25.2878 2.4375 27.3483 16.125 47.0166Z" fill="#F44336"/>
<circle cx="18" cy="18" r="14.25" fill="white"/>
<path d="M9.3376 25.4571C9.3376 26.1562 9.879 26.7 10.5751 26.7H16.7626V20.4857H9.3376V25.4571ZM19.2376 26.7H25.4251C26.0825 26.7 26.6626 26.1562 26.6626 25.4571V20.4857H19.2376V26.7ZM26.6626 14.2714H24.9997C25.2704 13.8053 25.4251 13.3004 25.4251 12.7178C25.4251 10.8536 23.8782 9.29999 22.022 9.29999C20.3978 9.29999 19.3536 10.1545 18.0388 11.9799C16.6853 10.1545 15.6411 9.29999 14.0556 9.29999C12.1606 9.29999 10.6524 10.8536 10.6524 12.7178C10.6524 13.3004 10.7685 13.8053 11.0392 14.2714H9.3376C8.6415 14.2714 8.1001 14.854 8.1001 15.5143V18.6214C8.1001 18.971 8.3708 19.2428 8.71885 19.2428H27.2813C27.5907 19.2428 27.9001 18.971 27.9001 18.6214V15.5143C27.9001 14.854 27.32 14.2714 26.6626 14.2714ZM14.0169 14.2714C13.1661 14.2714 12.47 13.6111 12.47 12.7178C12.47 11.8634 13.1661 11.1643 14.0169 11.1643C14.7903 11.1643 15.3704 11.3196 17.3813 14.2714H14.0169ZM22.022 14.2714H18.6575C20.6685 11.3196 21.2099 11.1643 22.022 11.1643C22.8728 11.1643 23.5688 11.8634 23.5688 12.7178C23.5688 13.6111 22.8728 14.2714 22.022 14.2714Z" fill="#F44336"/>
</svg>
