<svg width="62" height="77" viewBox="0 0 62 77" fill="none" xmlns="http://www.w3.org/2000/svg">
<path d="M40.5947 35.7684H21.4053V57.5428H40.5947V35.7684Z" fill="#E2988F"/>
<path d="M49.7964 20.482C48.7372 17.9364 46.5733 19.1896 46.5733 19.1896C47.8209 7.63016 41.9725 0 31.0034 0C20.0343 0 14.1794 7.63016 15.4271 19.1896C15.4271 19.1896 13.2631 17.943 12.2039 20.482C11.1447 23.021 13.0812 28.9868 14.2769 30.8862C15.4726 32.779 17.591 34.215 17.591 34.215C17.591 34.215 17.7275 36.3428 18.2798 37.8179C18.8322 39.2996 25.09 46.1008 26.929 47.1386C29.3399 48.568 32.9009 48.568 35.0648 47.1386C36.9038 46.1008 43.1682 39.2996 43.714 37.8179C44.2664 36.3363 44.4029 34.215 44.4029 34.215C44.4029 34.215 46.5213 32.779 47.717 30.8862C48.9191 28.9868 50.8556 23.0275 49.7964 20.482Z" fill="#E2988F"/>
<path d="M31.0945 48.444C29.5869 48.444 28.0468 48.0785 26.8056 47.3475C25.6944 46.7209 23.1276 44.1427 21.2236 42.0148L21.5875 41.6885C23.5305 43.8555 26.0324 46.3488 27.0526 46.9232C29.3855 48.3004 32.849 48.3069 34.935 46.9297C35.9747 46.3423 38.4765 43.8489 40.413 41.6885L40.7769 42.0148C38.8664 44.1427 36.3061 46.7143 35.1884 47.3475C34.0837 48.0785 32.6086 48.444 31.0945 48.444Z" fill="#C46966"/>
<path d="M17.2274 29.2232L16.7437 29.2831L17.3521 34.2389L17.8358 34.179L17.2274 29.2232Z" fill="#C46966"/>
<path d="M44.7405 29.2254L44.1914 34.1817L44.6758 34.2358L45.2249 29.2796L44.7405 29.2254Z" fill="#C46966"/>
<path d="M13.6204 26.1998C13.5164 25.8277 12.6587 22.512 13.8479 21.6047C14.2442 21.3501 14.5627 21.3763 14.7641 21.4415C15.3684 21.6373 15.6739 22.3945 15.7064 22.4793L15.2515 22.6556C15.1865 22.4859 14.9396 22.0159 14.6146 21.9115C14.4652 21.8593 14.3027 21.8984 14.1273 22.0094C13.445 22.5316 13.7374 24.7834 14.0883 26.0758L13.6204 26.1998Z" fill="#C46966"/>
<path d="M48.3799 26.1997L47.912 26.0692C48.2629 24.7768 48.5618 22.525 47.86 21.9963C47.6976 21.8918 47.5351 21.8592 47.3857 21.9049C46.9958 22.0354 46.7488 22.6425 46.7488 22.649L46.2939 22.4728C46.3264 22.3879 46.6319 21.6373 47.2362 21.4349C47.4376 21.3697 47.7626 21.3436 48.1395 21.5916C49.3481 22.5119 48.4839 25.8211 48.3799 26.1997Z" fill="#C46966"/>
<path d="M16.9802 25.2663C20.2358 25.2859 17.773 14.7316 20.3268 12.173C21.6265 10.8741 23.5175 11.0895 25.142 11.5007C27.033 11.9837 28.989 12.643 30.984 12.6952C33.0959 12.7539 35.1039 11.9707 37.1313 11.4811C38.7039 11.096 40.413 10.9263 41.6606 12.173C44.2145 14.7251 41.7516 25.2794 45.0073 25.2663C44.7798 22.8252 44.7733 20.1556 46.5603 19.1896C47.821 7.63016 41.9726 0 31.0035 0C20.0279 0 14.1795 7.63016 15.4271 19.1896C16.8762 20.1361 17.2076 22.7142 16.9802 25.2663Z" fill="#4C224B"/>
<path d="M62 59.4878C51.7587 54.8993 40.5947 53.274 40.5947 53.274C35.4741 58.6393 25.9281 58.7111 21.4053 53.274C21.4053 53.274 10.2413 54.8993 0 59.4878C6.36831 69.9834 17.8702 77 31.0032 77C44.1363 77 55.6382 69.9899 62 59.4878Z" fill="#F4BA5D"/>
<path d="M18.8125 53.6461L21.4053 48.9727L29.8011 56.5441L24.6609 62.1966L18.8125 53.6461Z" fill="white"/>
<path d="M43.181 53.6461L40.5881 48.9727L32.1924 56.5441L37.326 62.1966L43.181 53.6461Z" fill="white"/>
</svg>
