<svg width="23" height="28" viewBox="0 0 23 28" fill="none" xmlns="http://www.w3.org/2000/svg">
<path d="M11.2525 0.90332C5.28651 0.90332 0.447266 5.52098 0.447266 11.2138C0.447266 16.0692 8.31103 24.8631 10.6239 27.3417C10.9679 27.7039 11.549 27.7039 11.893 27.3417C14.2059 24.8631 22.0697 16.0692 22.0697 11.2138C22.0578 5.52098 17.2186 0.90332 11.2525 0.90332ZM11.2525 15.8202C8.31103 15.8202 5.90327 13.534 5.90327 10.7159C5.90327 7.90904 8.29917 5.61152 11.2525 5.61152C14.194 5.61152 16.6018 7.89772 16.6018 10.7159C16.6018 13.534 14.2059 15.8202 11.2525 15.8202Z" fill="white"/>
</svg>
