<svg width="24" height="24" viewBox="0 0 24 24" fill="none" xmlns="http://www.w3.org/2000/svg">
<rect x="7.39053" y="11.0851" width="8.99704" height="7.43234" fill="black"/>
<path d="M16.5284 10.7099H15.2133V9.36531C15.2133 7.50992 13.706 6 11.8523 6C9.99855 6 8.4912 7.50992 8.4912 9.36382V10.7085H7.25098C7.11301 10.7099 7 10.8246 7 10.9676V18.6497C7 18.7927 7.11301 18.9073 7.25098 18.9073H16.5299C16.6679 18.9073 16.7809 18.7912 16.7809 18.6497V10.9676C16.7794 10.8246 16.6664 10.7099 16.5284 10.7099ZM16.2789 11.2252V18.3906H7.50049V11.2252H16.2789ZM14.7114 10.7099H8.99316V9.36531C8.99316 7.79434 10.2759 6.51671 11.8523 6.51671C13.4286 6.51671 14.7114 7.79434 14.7114 9.36531V10.7099V10.7099Z" fill="black"/>
<path d="M11.8113 15.9128C11.9523 15.9128 12.0653 15.7966 12.0653 15.6552V13.3173C12.0653 13.1744 11.9508 13.0597 11.8113 13.0597C11.6704 13.0597 11.5574 13.1758 11.5574 13.3173V15.6552C11.5574 15.7966 11.6719 15.9128 11.8113 15.9128Z" fill="white"/>
</svg>
