<svg width="80" height="80" viewBox="0 0 80 80" fill="none" xmlns="http://www.w3.org/2000/svg">
<g filter="url(#filter0_di_4458_335)">
<path d="M37.437 44.5694L31.4309 38.5633C30.7514 37.8832 30.3697 36.9611 30.3697 35.9997C30.3697 35.0383 30.7514 34.1162 31.4309 33.4361L37.437 27.43C37.7736 27.0932 38.1732 26.826 38.6131 26.6437C39.053 26.4614 39.5245 26.3676 40.0006 26.3676C40.4768 26.3676 40.9482 26.4614 41.3881 26.6437C41.828 26.826 42.2276 27.0932 42.5642 27.43L48.5704 33.4361C48.9072 33.7727 49.1743 34.1723 49.3566 34.6122C49.5389 35.0521 49.6328 35.5235 49.6328 35.9997C49.6328 36.4758 49.5389 36.9473 49.3566 37.3872C49.1743 37.8271 48.9072 38.2267 48.5704 38.5633L42.5642 44.5694C41.8843 45.2492 40.9621 45.6312 40.0006 45.6312C39.0391 45.6312 38.1169 45.2492 37.437 44.5694ZM37.437 63.6131C37.1002 63.2765 36.833 62.8769 36.6507 62.437C36.4684 61.9971 36.3746 61.5257 36.3746 61.0495C36.3746 60.5734 36.4684 60.1019 36.6507 59.662C36.833 59.2221 37.1002 58.8225 37.437 58.4859L57.3598 38.5633C57.6966 38.2267 57.9638 37.8271 58.1461 37.3872C58.3284 36.9473 58.4222 36.4758 58.4222 35.9997C58.4222 35.5235 58.3284 35.0521 58.1461 34.6122C57.9638 34.1723 57.6966 33.7727 57.3598 33.4361L55.5287 31.605L46.9589 23.0353C46.2903 22.3531 45.918 21.4345 45.9228 20.4793C45.9277 19.5241 46.3093 18.6094 46.9847 17.9339C47.6602 17.2585 48.5749 16.8769 49.5301 16.872C50.4854 16.8672 51.4039 17.2396 52.0861 17.9082L67.6142 33.4361C67.951 33.7727 68.2182 34.1723 68.4005 34.6122C68.5828 35.0521 68.6766 35.5235 68.6766 35.9997C68.6766 36.4758 68.5828 36.9473 68.4005 37.3872C68.2182 37.8271 67.951 38.2267 67.6142 38.5633L42.5642 63.6131C41.8843 64.2929 40.9621 64.6749 40.0006 64.6749C39.0391 64.6749 38.1169 64.2929 37.437 63.6131ZM27.9151 54.0912L12.387 38.5633C12.0502 38.2267 11.783 37.8271 11.6007 37.3872C11.4184 36.9473 11.3246 36.4758 11.3246 35.9997C11.3246 35.5235 11.4184 35.0521 11.6007 34.6122C11.783 34.1723 12.0502 33.7727 12.387 33.4361L37.437 8.3863C38.1193 7.71771 39.0378 7.34536 39.993 7.35019C40.9482 7.35501 41.863 7.73661 42.5384 8.41206C43.2139 9.08752 43.5955 10.0022 43.6003 10.9575C43.6051 11.9127 43.2328 12.8312 42.5642 13.5135L22.6414 33.4361C21.9619 34.1162 21.5802 35.0383 21.5802 35.9997C21.5802 36.9611 21.9619 37.8832 22.6414 38.5633L24.4725 40.3944L33.0423 48.9641C33.3845 49.2995 33.6569 49.6994 33.8436 50.1407C34.0304 50.5821 34.1278 51.056 34.1302 51.5352C34.1326 52.0144 34.04 52.4894 33.8577 52.9326C33.6755 53.3757 33.4071 53.7784 33.0683 54.1173C32.7294 54.4561 32.3268 54.7244 31.8836 54.9067C31.4404 55.089 30.9655 55.1816 30.4862 55.1791C30.007 55.1767 29.5331 55.0793 29.0917 54.8926C28.6504 54.7059 28.2505 54.4335 27.9151 54.0912ZM37.437 1.06179L5.06241 33.4361C4.7256 33.7727 4.45841 34.1723 4.27612 34.6122C4.09383 35.0521 4 35.5235 4 35.9997C4 36.4758 4.09383 36.9473 4.27612 37.3872C4.45841 37.8271 4.7256 38.2267 5.06241 38.5633L37.437 70.9376C37.7736 71.2744 38.1732 71.5416 38.6131 71.7239C39.053 71.9062 39.5245 72 40.0006 72C40.4768 72 40.9482 71.9062 41.3881 71.7239C41.828 71.5416 42.2276 71.2744 42.5642 70.9376L74.9388 38.5633C75.6183 37.8832 76 36.9611 76 35.9997C76 35.0383 75.6183 34.1162 74.9388 33.4361L42.5642 1.06179C41.8843 0.381934 40.9621 0 40.0006 0C39.0391 0 38.1169 0.381934 37.437 1.06179Z" fill="#23ACE5"/>
</g>
<defs>
<filter id="filter0_di_4458_335" x="0" y="0" width="80" height="80" filterUnits="userSpaceOnUse" color-interpolation-filters="sRGB">
<feFlood flood-opacity="0" result="BackgroundImageFix"/>
<feColorMatrix in="SourceAlpha" type="matrix" values="0 0 0 0 0 0 0 0 0 0 0 0 0 0 0 0 0 0 127 0" result="hardAlpha"/>
<feOffset dy="4"/>
<feGaussianBlur stdDeviation="2"/>
<feComposite in2="hardAlpha" operator="out"/>
<feColorMatrix type="matrix" values="0 0 0 0 1 0 0 0 0 1 0 0 0 0 1 0 0 0 0.25 0"/>
<feBlend mode="normal" in2="BackgroundImageFix" result="effect1_dropShadow_4458_335"/>
<feBlend mode="normal" in="SourceGraphic" in2="effect1_dropShadow_4458_335" result="shape"/>
<feColorMatrix in="SourceAlpha" type="matrix" values="0 0 0 0 0 0 0 0 0 0 0 0 0 0 0 0 0 0 127 0" result="hardAlpha"/>
<feOffset dy="4"/>
<feGaussianBlur stdDeviation="1"/>
<feComposite in2="hardAlpha" operator="arithmetic" k2="-1" k3="1"/>
<feColorMatrix type="matrix" values="0 0 0 0 1 0 0 0 0 1 0 0 0 0 1 0 0 0 0.5 0"/>
<feBlend mode="normal" in2="shape" result="effect2_innerShadow_4458_335"/>
</filter>
</defs>
</svg>
