<svg width="24" height="24" viewBox="0 0 24 24" fill="none" xmlns="http://www.w3.org/2000/svg">
<path d="M16 8.99999H18.33C18.5697 8.99691 18.8025 9.08002 18.9861 9.2342C19.1696 9.38838 19.2917 9.60337 19.33 9.83999L21 19.84C21.0234 19.9841 21.0149 20.1315 20.9752 20.272C20.9356 20.4124 20.8656 20.5425 20.7703 20.653C20.675 20.7636 20.5567 20.8519 20.4236 20.9118C20.2905 20.9718 20.146 21.0019 20 21H4.00002C3.85408 21.0019 3.7095 20.9718 3.57642 20.9118C3.44335 20.8519 3.32501 20.7636 3.22971 20.653C3.13441 20.5425 3.06447 20.4124 3.02479 20.272C2.98511 20.1315 2.97665 19.9841 3.00002 19.84L4.67002 9.83999C4.70835 9.60337 4.83041 9.38838 5.01396 9.2342C5.1975 9.08002 5.43033 8.99691 5.67002 8.99999H8.00002" stroke="white" stroke-width="2" stroke-linecap="round" stroke-linejoin="round"/>
<path d="M16 7C16 5.93913 15.5786 4.92172 14.8284 4.17157C14.0783 3.42143 13.0609 3 12 3C10.9391 3 9.92172 3.42143 9.17157 4.17157C8.42143 4.92172 8 5.93913 8 7C8 11 12 15 12 15C12 15 16 11 16 7Z" stroke="white" stroke-width="2" stroke-linecap="round" stroke-linejoin="round"/>
</svg>
