<svg width="18" height="22" viewBox="0 0 18 22" fill="none" xmlns="http://www.w3.org/2000/svg">
<path d="M8.99979 22C9.53022 22 10.0389 21.7893 10.414 21.4142C10.7891 21.0391 10.9998 20.5304 10.9998 20H6.99979C6.99979 20.5304 7.2105 21.0391 7.58557 21.4142C7.96065 21.7893 8.46935 22 8.99979 22ZM0.999787 18H16.9998C17.1975 18 17.3908 17.9413 17.5552 17.8314C17.7197 17.7215 17.8478 17.5654 17.9235 17.3827C17.9991 17.2 18.0189 16.9989 17.9804 16.805C17.9418 16.611 17.8466 16.4329 17.7068 16.293L15.9998 14.586V9C15.9966 7.3185 15.3887 5.69424 14.2871 4.42379C13.1856 3.15334 11.6639 2.32145 9.99979 2.08V1C9.99979 0.734784 9.89443 0.48043 9.70689 0.292893C9.51936 0.105357 9.265 0 8.99979 0C8.73457 0 8.48022 0.105357 8.29268 0.292893C8.10514 0.48043 7.99979 0.734784 7.99979 1V2.08C6.33571 2.32145 4.81397 3.15334 3.71243 4.42379C2.61088 5.69424 2.003 7.3185 1.99979 9V14.586L0.292787 16.293C0.152977 16.4329 0.057771 16.611 0.0192035 16.805C-0.0193641 16.9989 0.000438951 17.2 0.076109 17.3827C0.151779 17.5654 0.279918 17.7215 0.444328 17.8314C0.608738 17.9413 0.802037 18 0.999787 18ZM3.70679 15.707C3.89434 15.5195 3.99973 15.2652 3.99979 15V9C3.99979 7.67392 4.52657 6.40215 5.46425 5.46447C6.40193 4.52678 7.67371 4 8.99979 4C10.3259 4 11.5976 4.52678 12.5353 5.46447C13.473 6.40215 13.9998 7.67392 13.9998 9V15C13.9998 15.2652 14.1052 15.5195 14.2928 15.707L14.5858 16H3.41379L3.70679 15.707Z" fill="currentColor"/>
</svg>
