<svg width="24" height="24" viewBox="0 0 24 24" fill="none" xmlns="http://www.w3.org/2000/svg">
<path d="M21 15V18.93C21.003 19.2189 20.9434 19.5051 20.8253 19.7688C20.7072 20.0325 20.5333 20.2675 20.3157 20.4575C20.0981 20.6476 19.8418 20.7883 19.5646 20.8698C19.2874 20.9514 18.9959 20.9719 18.71 20.93C14.7469 20.4209 11.0659 18.6077 8.24695 15.776C5.42797 12.9444 3.63128 9.25529 3.13998 5.29C3.0982 5.00495 3.1185 4.71424 3.19948 4.43776C3.28047 4.16128 3.42023 3.90556 3.6092 3.6881C3.79817 3.47064 4.03189 3.29657 4.29437 3.17781C4.55685 3.05905 4.84189 2.9984 5.12998 3H8.99998C9.24719 2.9985 9.4862 3.08863 9.67087 3.25299C9.85554 3.41734 9.97279 3.64428 9.99998 3.89C10.0992 5.20057 10.4382 6.4818 11 7.67C11.0963 7.89503 11.1068 8.14758 11.0294 8.3798C10.952 8.61202 10.7921 8.80778 10.58 8.93L9.71998 9.42C9.59602 9.48818 9.48793 9.58188 9.40286 9.69492C9.3178 9.80796 9.25768 9.93776 9.22649 10.0758C9.1953 10.2137 9.19375 10.3568 9.22193 10.4954C9.25011 10.6341 9.30739 10.7651 9.38998 10.88C10.3793 12.3292 11.6308 13.5807 13.08 14.57C13.1948 14.6526 13.3259 14.7099 13.4646 14.738C13.6032 14.7662 13.7462 14.7647 13.8842 14.7335C14.0222 14.7023 14.152 14.6422 14.2651 14.5571C14.3781 14.472 14.4718 14.364 14.54 14.24L15.03 13.38C15.1595 13.1651 15.365 13.0068 15.6059 12.9364C15.8467 12.866 16.1051 12.8887 16.33 13C17.5182 13.5618 18.7994 13.9008 20.11 14C20.3557 14.0272 20.5826 14.1444 20.747 14.3291C20.9114 14.5138 21.0015 14.7528 21 15Z" stroke="white" stroke-width="2" stroke-linecap="round" stroke-linejoin="round"/>
</svg>
