<svg width="20" height="18" viewBox="0 0 20 18" fill="none" xmlns="http://www.w3.org/2000/svg">
<path d="M19 3.28571H6.625M4.375 3.28571H1M19 14.7143H6.625M4.375 14.7143H1M13.375 9H1M19 9H15.625M5.5 1C5.79837 1 6.08452 1.12041 6.29549 1.33474C6.50647 1.54906 6.625 1.83975 6.625 2.14286V4.42857C6.625 4.73168 6.50647 5.02237 6.29549 5.23669C6.08452 5.45102 5.79837 5.57143 5.5 5.57143C5.20163 5.57143 4.91548 5.45102 4.70451 5.23669C4.49353 5.02237 4.375 4.73168 4.375 4.42857V2.14286C4.375 1.83975 4.49353 1.54906 4.70451 1.33474C4.91548 1.12041 5.20163 1 5.5 1V1ZM5.5 12.4286C5.79837 12.4286 6.08452 12.549 6.29549 12.7633C6.50647 12.9776 6.625 13.2683 6.625 13.5714V15.8571C6.625 16.1602 6.50647 16.4509 6.29549 16.6653C6.08452 16.8796 5.79837 17 5.5 17C5.20163 17 4.91548 16.8796 4.70451 16.6653C4.49353 16.4509 4.375 16.1602 4.375 15.8571V13.5714C4.375 13.2683 4.49353 12.9776 4.70451 12.7633C4.91548 12.549 5.20163 12.4286 5.5 12.4286ZM14.5 6.71429C14.7984 6.71429 15.0845 6.83469 15.2955 7.04902C15.5065 7.26335 15.625 7.55404 15.625 7.85714V10.1429C15.625 10.446 15.5065 10.7367 15.2955 10.951C15.0845 11.1653 14.7984 11.2857 14.5 11.2857C14.2016 11.2857 13.9155 11.1653 13.7045 10.951C13.4935 10.7367 13.375 10.446 13.375 10.1429V7.85714C13.375 7.55404 13.4935 7.26335 13.7045 7.04902C13.9155 6.83469 14.2016 6.71429 14.5 6.71429V6.71429Z" stroke="white" stroke-width="1.25" stroke-linecap="round" stroke-linejoin="round"/>
</svg>
