<svg width="17" height="20" viewBox="0 0 17 20" fill="none" xmlns="http://www.w3.org/2000/svg">
<path d="M9.51832 13.0001C9.49897 12.9386 9.46947 12.8811 9.43112 12.8301L9.31485 12.6801C9.22477 12.5863 9.11761 12.5119 8.99953 12.4612C8.88146 12.4104 8.75482 12.3843 8.62691 12.3843C8.499 12.3843 8.37235 12.4104 8.25428 12.4612C8.13621 12.5119 8.02904 12.5863 7.93897 12.6801C7.89278 12.7234 7.85354 12.774 7.8227 12.8301C7.78435 12.8811 7.75484 12.9386 7.73549 13.0001C7.70744 13.0602 7.68786 13.1242 7.67736 13.1901C7.67261 13.2533 7.67261 13.3168 7.67736 13.3801C7.67399 13.5145 7.70051 13.6479 7.75487 13.7701C7.85347 14.0133 8.04113 14.2064 8.27702 14.3076C8.51291 14.4087 8.77795 14.4096 9.01448 14.3101C9.13223 14.2557 9.24032 14.1813 9.33422 14.0901C9.42138 13.9979 9.49047 13.8893 9.5377 13.7701C9.5886 13.6467 9.61496 13.5141 9.61521 13.3801C9.61996 13.3168 9.61996 13.2533 9.61521 13.1901C9.59257 13.122 9.55989 13.0579 9.51832 13.0001ZM8.62691 5.36006C8.36993 5.36006 8.12348 5.46542 7.94177 5.65296C7.76006 5.84049 7.65798 6.09485 7.65798 6.36006V9.36006C7.65798 9.62528 7.76006 9.87963 7.94177 10.0672C8.12348 10.2547 8.36993 10.3601 8.62691 10.3601C8.88388 10.3601 9.13033 10.2547 9.31204 10.0672C9.49375 9.87963 9.59583 9.62528 9.59583 9.36006V6.36006C9.59583 6.09485 9.49375 5.84049 9.31204 5.65296C9.13033 5.46542 8.88388 5.36006 8.62691 5.36006ZM16.0198 1.65006C15.9073 1.55609 15.7757 1.48934 15.6349 1.45473C15.494 1.42012 15.3474 1.41852 15.2059 1.45006C14.1706 1.67401 13.1017 1.67686 12.0653 1.45845C11.0288 1.24003 10.0466 0.804978 9.17919 0.180064C9.017 0.063937 8.82431 0.00170898 8.62691 0.00170898C8.4295 0.00170898 8.23681 0.063937 8.07462 0.180064C7.20719 0.804978 6.22501 1.24003 5.18854 1.45845C4.15207 1.67686 3.08326 1.67401 2.0479 1.45006C1.90637 1.41852 1.7598 1.42012 1.61895 1.45473C1.4781 1.48934 1.34656 1.55609 1.234 1.65006C1.12158 1.74418 1.03103 1.8631 0.968988 1.99808C0.906949 2.13306 0.875002 2.28067 0.875494 2.43006V9.88006C0.874632 11.3138 1.20568 12.727 1.84106 14.002C2.47645 15.277 3.39778 16.3769 4.52835 17.2101L8.06493 19.8101C8.22903 19.9306 8.42546 19.9954 8.62691 19.9954C8.82835 19.9954 9.02479 19.9306 9.18888 19.8101L12.7255 17.2101C13.856 16.3769 14.7774 15.277 15.4128 14.002C16.0481 12.727 16.3792 11.3138 16.3783 9.88006V2.43006C16.3788 2.28067 16.3469 2.13306 16.2848 1.99808C16.2228 1.8631 16.1322 1.74418 16.0198 1.65006ZM14.4405 9.88006C14.4412 10.9948 14.184 12.0936 13.6902 13.0851C13.1964 14.0765 12.4803 14.9319 11.6015 15.5801L8.62691 17.7701L5.6523 15.5801C4.77352 14.9319 4.05743 14.0765 3.56363 13.0851C3.06984 12.0936 2.8126 10.9948 2.81335 9.88006V3.58006C4.84463 3.7595 6.879 3.27309 8.62691 2.19006C10.3748 3.27309 12.4092 3.7595 14.4405 3.58006V9.88006Z" fill="#FFB21E"/>
</svg>
