<svg width="10" height="11" viewBox="0 0 10 11" fill="none" xmlns="http://www.w3.org/2000/svg">
<path fill-rule="evenodd" clip-rule="evenodd" d="M9.52367 1.38611C9.79395 1.10716 9.79395 0.654903 9.52367 0.375958C9.25339 0.0970116 8.81518 0.0970116 8.5449 0.375958L4.88174 4.1566L1.21858 0.375958C0.948304 0.0970116 0.510096 0.0970116 0.239818 0.375958C-0.0304602 0.654903 -0.0304602 1.10716 0.239818 1.38611L3.90298 5.16675L0.239818 8.94739C-0.0304602 9.22633 -0.0304602 9.67859 0.239818 9.95754C0.510096 10.2365 0.948304 10.2365 1.21858 9.95754L4.88174 6.1769L8.5449 9.95754C8.81518 10.2365 9.25339 10.2365 9.52367 9.95754C9.79395 9.67859 9.79395 9.22633 9.52367 8.94739L5.86051 5.16675L9.52367 1.38611Z" fill="#F44336"/>
</svg>
