<svg width="24" height="24" viewBox="0 0 24 24" fill="none" xmlns="http://www.w3.org/2000/svg">
<path d="M14 18H8.99999C7.72909 17.9964 6.49214 17.5894 5.46745 16.8376C4.44276 16.0858 3.68325 15.0281 3.29841 13.8168C2.91357 12.6056 2.92328 11.3035 3.32614 10.0981C3.729 8.89273 4.5042 7.84642 5.53999 7.10999" stroke="white" stroke-width="2" stroke-linecap="round" stroke-linejoin="round"/>
<path d="M12 16L14 18L12 20" stroke="white" stroke-width="2" stroke-linecap="round" stroke-linejoin="round"/>
<path d="M10 6H15C16.2709 6.00354 17.5078 6.41055 18.5325 7.16235C19.5572 7.91415 20.3167 8.9719 20.7016 10.1831C21.0864 11.3944 21.0767 12.6965 20.6738 13.9019C20.271 15.1073 19.4958 16.1536 18.46 16.89" stroke="white" stroke-width="2" stroke-linecap="round" stroke-linejoin="round"/>
<path d="M12 8L10 6L12 4" stroke="white" stroke-width="2" stroke-linecap="round" stroke-linejoin="round"/>
</svg>
