<svg width="24" height="24" viewBox="0 0 24 24" fill="none" xmlns="http://www.w3.org/2000/svg">
<path fill-rule="evenodd" clip-rule="evenodd" d="M9.22222 3H5.66667C4.95942 3 4.28115 3.29176 3.78105 3.81109C3.28095 4.33042 3 5.03479 3 5.76923V9.46154C3 9.70635 3.09365 9.94114 3.26035 10.1143C3.42705 10.2874 3.65314 10.3846 3.88889 10.3846C4.12464 10.3846 4.35073 10.2874 4.51743 10.1143C4.68413 9.94114 4.77778 9.70635 4.77778 9.46154V5.76923C4.77778 5.52442 4.87143 5.28963 5.03813 5.11652C5.20483 4.94341 5.43092 4.84615 5.66667 4.84615H9.22222C9.45797 4.84615 9.68406 4.7489 9.85076 4.57579C10.0175 4.40268 10.1111 4.16789 10.1111 3.92308C10.1111 3.67826 10.0175 3.44347 9.85076 3.27036C9.68406 3.09725 9.45797 3 9.22222 3V3ZM3 14.0769V18.6923C3 19.4268 3.28095 20.1311 3.78105 20.6504C4.28115 21.1698 4.95942 21.4615 5.66667 21.4615H8.33333C8.56908 21.4615 8.79517 21.3643 8.96187 21.1912C9.12857 21.0181 9.22222 20.7833 9.22222 20.5385C9.22222 20.2936 9.12857 20.0589 8.96187 19.8857C8.79517 19.7126 8.56908 19.6154 8.33333 19.6154H5.66667C5.43092 19.6154 5.20483 19.5181 5.03813 19.345C4.87143 19.1719 4.77778 18.9371 4.77778 18.6923V14.0769C4.77778 13.8321 4.68413 13.5973 4.51743 13.4242C4.35073 13.2511 4.12464 13.1538 3.88889 13.1538C3.65314 13.1538 3.42705 13.2511 3.26035 13.4242C3.09365 13.5973 3 13.8321 3 14.0769V14.0769ZM14.5556 21.4615H18.1111C18.8184 21.4615 19.4966 21.1698 19.9967 20.6504C20.4968 20.1311 20.7778 19.4268 20.7778 18.6923V15C20.7778 14.7552 20.6841 14.5204 20.5174 14.3473C20.3507 14.1742 20.1246 14.0769 19.8889 14.0769C19.6531 14.0769 19.427 14.1742 19.2604 14.3473C19.0937 14.5204 19 14.7552 19 15V18.6923C19 18.9371 18.9064 19.1719 18.7397 19.345C18.573 19.5181 18.3469 19.6154 18.1111 19.6154H14.5556C14.3198 19.6154 14.0937 19.7126 13.927 19.8857C13.7603 20.0589 13.6667 20.2936 13.6667 20.5385C13.6667 20.7833 13.7603 21.0181 13.927 21.1912C14.0937 21.3643 14.3198 21.4615 14.5556 21.4615V21.4615ZM20.7778 9.46154V5.76923C20.7778 5.03479 20.4968 4.33042 19.9967 3.81109C19.4966 3.29176 18.8184 3 18.1111 3H14.5556C14.3198 3 14.0937 3.09725 13.927 3.27036C13.7603 3.44347 13.6667 3.67826 13.6667 3.92308C13.6667 4.16789 13.7603 4.40268 13.927 4.57579C14.0937 4.7489 14.3198 4.84615 14.5556 4.84615H18.1111C18.3469 4.84615 18.573 4.94341 18.7397 5.11652C18.9064 5.28963 19 5.52442 19 5.76923V9.46154C19 9.70635 19.0937 9.94114 19.2604 10.1143C19.427 10.2874 19.6531 10.3846 19.8889 10.3846C20.1246 10.3846 20.3507 10.2874 20.5174 10.1143C20.6841 9.94114 20.7778 9.70635 20.7778 9.46154ZM7.44444 13.1538H16.3333C16.5691 13.1538 16.7952 13.0566 16.9619 12.8835C17.1286 12.7104 17.2222 12.4756 17.2222 12.2308C17.2222 11.986 17.1286 11.7512 16.9619 11.5781C16.7952 11.4049 16.5691 11.3077 16.3333 11.3077H7.44444C7.2087 11.3077 6.9826 11.4049 6.81591 11.5781C6.64921 11.7512 6.55556 11.986 6.55556 12.2308C6.55556 12.4756 6.64921 12.7104 6.81591 12.8835C6.9826 13.0566 7.2087 13.1538 7.44444 13.1538Z" fill="currentColor"/>
</svg>
