<svg width="20" height="21" viewBox="0 0 20 21" fill="none" xmlns="http://www.w3.org/2000/svg">
<path d="M0.925161 20.0906L6.5382 14.0032M3.86191 9.00596C4.01812 10.4688 4.5954 11.8515 5.52075 12.9793C6.4461 14.1072 7.67796 14.9294 9.06055 15.3421C10.4431 15.7548 11.9144 15.7395 13.2882 15.2979C14.662 14.8564 15.8767 14.0086 16.7787 12.8616C17.6806 11.7147 18.2294 10.3202 18.3555 8.85443C18.4816 7.38868 18.1795 5.91752 17.4872 4.62699C16.795 3.33646 15.7437 2.28452 14.4665 1.6042C13.1892 0.923887 11.7432 0.645743 10.3114 0.804946C8.39143 1.01843 6.63329 2.0024 5.42378 3.54039C4.21426 5.07837 3.65244 7.0444 3.86191 9.00596Z" stroke="black" stroke-width="1.5" stroke-linecap="round" stroke-linejoin="round"/>
</svg>
