<svg width="69" height="70" viewBox="0 0 69 70" fill="none" xmlns="http://www.w3.org/2000/svg">
<g clip-path="url(#clip0_4644_713)">
<rect x="8" y="7" width="53" height="59.1111" fill="#D9D9D9"/>
<path d="M34.7744 40.2946L35.147 58.4805L39.8904 62.3214L44.9351 58.1731L44.7848 40.7365C44.7841 40.7359 42.8351 35.2436 34.7744 40.2946Z" fill="white"/>
<path d="M40.2233 49.674H39.0596L37.8457 45.0684H41.4379L40.2233 49.674Z" fill="#E08663"/>
<path d="M43.3118 62.6597H35.9712L39.082 49.3721H40.201L43.3118 62.6597Z" fill="#E08663"/>
<path d="M29.7727 29.7244C31.5101 29.7244 32.9185 28.1259 32.9185 26.154C32.9185 24.182 31.5101 22.5835 29.7727 22.5835C28.0354 22.5835 26.627 24.182 26.627 26.154C26.627 28.1259 28.0354 29.7244 29.7727 29.7244Z" fill="#FEBDA3"/>
<path d="M49.7996 29.7244C51.537 29.7244 52.9454 28.1259 52.9454 26.154C52.9454 24.182 51.537 22.5835 49.7996 22.5835C48.0622 22.5835 46.6538 24.182 46.6538 26.154C46.6538 28.1259 48.0622 29.7244 49.7996 29.7244Z" fill="#FEBDA3"/>
<path d="M44.7724 32.7822H34.8003V45.0017H44.7724V32.7822Z" fill="#FED5C4"/>
<path d="M34.8003 38.2694C36.3307 38.9414 38.0147 39.3174 39.7864 39.3174C41.5574 39.3174 43.242 38.942 44.7724 38.2694V32.7832H34.8003V38.2694Z" fill="#FEBDA3"/>
<path d="M42.9191 36.9877H37.0303C32.7795 36.9877 29.333 33.4718 29.333 29.1351V17.4141C29.333 13.0775 32.7788 9.56152 37.0303 9.56152H42.9191C47.1699 9.56152 50.6164 13.0775 50.6164 17.4141V29.1351C50.6164 33.4718 47.1699 36.9877 42.9191 36.9877Z" fill="#FED5C4"/>
<path d="M32.1623 12.8925C32.1623 12.8925 41.9676 21.9364 46.3998 20.5662C50.832 19.196 50.6982 24.5403 50.6982 24.5403C50.6982 24.5403 53.6534 18.1003 52.847 15.7702C52.1751 13.8275 52.1751 11.1114 47.4746 9.8777C42.7734 8.64473 30.4163 2.61571 32.1623 12.8925Z" fill="#59524F"/>
<path d="M30.0326 10.3574C30.0326 10.3574 25.9868 10.7966 26.6613 14.7518C27.3358 18.707 29.2236 24.8585 29.2236 24.8585C29.2236 24.8585 35.0226 16.3628 33.9432 13.5801C32.8639 10.7973 32.1907 9.77081 30.0326 10.3574Z" fill="#59524F"/>
<path d="M37.7617 21.0586C37.7617 21.0586 39.2895 21.3337 39.1094 23.992C38.9294 26.6504 38.1211 29.3087 39.1991 29.4002C40.2772 29.4917 40.7268 28.85 40.7268 28.85C40.7268 28.85 40.6372 30.8666 38.8398 30.2249C37.0424 29.5832 38.0307 26.2831 38.3907 24.7252C38.7501 23.1674 37.7617 21.0586 37.7617 21.0586Z" fill="#FEBDA3"/>
<path d="M34.7839 40.2944L39.834 45.1954L34.6606 48.3367L34.7839 40.2944Z" fill="#E0E0E0"/>
<path d="M44.7885 40.2944L39.7378 45.1954L44.9118 48.3367L44.7885 40.2944Z" fill="#E0E0E0"/>
<path d="M34.733 39.9985C34.7377 40.2938 39.9855 63.0733 39.9855 63.0733H18.5781V45.6159L34.733 39.9985Z" fill="#45454F"/>
<path d="M44.8389 39.9985C44.8343 40.2938 39.5864 63.0733 39.5864 63.0733H60.9931V45.6159L44.8389 39.9985Z" fill="#45454F"/>
<path d="M9.94223 47.6888C9.94223 47.6888 9.63395 47.4422 9.33266 48.7727C9.08625 49.8608 9.54371 50.6579 8.82454 51.51C7.81061 52.7114 9.17797 54.659 8.79343 54.8613C7.63205 55.4723 7.80492 56.224 9.97577 64.3388C10.065 64.481 10.7823 69.5964 10.7823 69.5964C10.7823 69.5964 19.7219 68.9093 19.5511 65.1043C19.4251 62.2967 19.3167 60.4206 19.2685 59.63C19.2528 59.3711 19.3717 59.1212 19.5818 58.9667C20.3926 58.3706 22.4021 56.7238 22.7912 54.7929C23.2811 52.3615 23.2885 48.728 23.6272 47.5009C23.9658 46.2738 23.882 44.8898 22.6121 45.0218C21.0041 45.189 20.2411 49.3657 19.8755 49.9075C19.5099 50.4493 18.2399 51.0269 18.0703 50.4354C17.9005 49.8439 17.9022 49.3772 17.3241 49.1918C15.9059 48.7371 10.7361 46.8656 9.94223 47.6888Z" fill="#FED5C4"/>
<path d="M17.7887 61.908C16.4486 64.3871 13.2477 64.2859 13.2477 64.2859C16.1237 65.5304 18.5129 64.1621 19.5576 63.3699C19.4694 61.5302 19.3973 60.2687 19.3606 59.6577C19.3451 59.3997 19.4636 59.1505 19.6726 58.9965C19.1056 59.0507 19.1289 59.4288 17.7887 61.908Z" fill="#FEBDA3"/>
<path d="M18.0538 50.4131C17.884 49.8211 17.8859 49.354 17.3063 49.1687C16.9045 49.0402 16.2022 48.7984 15.3835 48.5365C14.7589 48.3885 14.2688 48.2632 14.2688 48.2632C14.2688 48.2632 17.1778 49.5319 17.3964 50.1678C17.6151 50.8038 18.2174 52.817 18.0732 54.221C18.0486 54.4603 17.9192 54.6496 17.7985 54.7778C17.5989 53.8426 17.3988 52.62 17.0788 52.361C16.6254 51.9942 11.355 51.1919 10.1769 51.3562C10.2015 51.3954 16.7027 52.6096 16.7913 53.1051C16.8799 53.6007 17.8209 55.364 17.3721 56.1569C17.1079 56.6237 16.9622 56.8777 16.8866 57.0086C16.5414 56.0231 16.2062 54.9127 15.8354 54.809C15.3622 54.6766 13.1087 54.6919 10.4469 54.8888C10.2794 54.9011 15.2578 54.8316 15.6519 55.4588C16.046 56.086 17.0166 57.7191 16.6024 58.2124C16.1882 58.7058 14.5516 59.1157 14.0439 58.8398C13.8782 58.7497 13.6904 58.6629 13.5063 58.6037C13.6956 58.1744 14.1576 57.4915 14.1576 57.4915L12.9152 58.5286C12.9152 58.5286 12.9223 58.5357 12.9344 58.5476C12.8005 58.582 12.6948 58.6656 12.6391 58.8205C12.4566 59.328 13.6937 59.7894 14.5711 59.7672C15.4485 59.7449 17.2491 59.0478 17.2442 58.5379C17.3057 58.4196 17.472 58.1192 17.6371 57.7388L18.6492 58.573C18.6492 58.573 18.2857 55.8891 18.6763 54.9509C18.9279 54.3464 18.8051 53.8273 18.6859 53.5335C18.698 53.3051 18.6834 53.0874 18.6286 52.8968C18.4805 52.3805 18.4565 51.47 18.3569 50.6564C18.2079 50.636 18.0963 50.5612 18.0538 50.4131Z" fill="#FEBDA3"/>
<path d="M9.2775 44.4788L9.71448 48.6066C9.71448 48.6066 13.1862 50.1147 13.5371 48.9273C13.7881 48.0779 12.4834 45.1035 12.4834 45.1035C12.4834 45.1035 13.5118 42.0967 13.6801 41.6769C13.8485 41.2573 15.1118 40.4588 15.8266 39.2133C16.7059 37.6813 16.3205 37.2473 15.7971 37.3279C15.2738 37.4085 12.0358 39.0755 11.6345 39.5048C11.2332 39.9341 9.34005 43.8911 9.2775 44.4788Z" fill="#FED5C4"/>
<path d="M15.689 37.327C15.4858 37.3584 14.8702 37.6313 14.1723 37.9772L14.1204 39.123C14.1204 39.123 15.8753 38.5506 16.0689 37.9859C16.1605 37.7186 16.119 37.5186 16.0503 37.3811C15.9528 37.3207 15.8258 37.3059 15.689 37.327Z" fill="#FEDFD3"/>
<path d="M9.81993 47.6253C10.2396 47.19 11.8828 47.5084 13.5479 47.9723C13.4557 47.6157 13.3098 47.0986 13.2139 46.8159C13.193 46.8209 13.1726 46.8247 13.1516 46.8303C11.5545 47.2461 10.0649 46.9213 9.5384 46.2483L9.53469 46.2882L9.67757 47.6317C9.76436 47.5814 9.81993 47.6253 9.81993 47.6253Z" fill="#FEBDA3"/>
<path d="M30.1288 45.7874H15.5511C14.9367 45.7874 14.4385 45.2793 14.4385 44.6523V36.2196C14.4385 35.5927 14.9366 35.0845 15.5511 35.0845H30.1287C30.7431 35.0845 31.2413 35.5926 31.2413 36.2195V44.6522C31.2413 45.2792 30.7432 45.7874 30.1288 45.7874Z" fill="#FFFFFC"/>
<path d="M30.0843 35.0847H15.5956C14.9565 35.0847 14.4385 35.6132 14.4385 36.265V37.2731H31.2413V36.265C31.2413 35.6131 30.7232 35.0847 30.0843 35.0847Z" fill="#C5CFD5"/>
<path d="M29.5182 35.6252H15.8535V36.3285H29.5182V35.6252Z" fill="white"/>
<path d="M29.5182 36.5552H15.8535V36.7712H29.5182V36.5552Z" fill="white"/>
<path d="M23.4975 37.9729H20.8872V38.5043H23.4975V37.9729Z" fill="#D5DAD7"/>
<path d="M27.5584 38.7664H20.8872V39.2097H27.5584V38.7664Z" fill="#D5DAD7"/>
<path d="M24.6557 39.6694H20.8872V40.2009H24.6557V39.6694Z" fill="#D5DAD7"/>
<path d="M26.9626 40.4629H20.8872V40.9062H26.9626V40.4629Z" fill="#D5DAD7"/>
<path d="M26.1537 41.366H20.8872V41.8974H26.1537V41.366Z" fill="#D5DAD7"/>
<path d="M23.4673 42.1594H20.8872V42.6027H23.4673V42.1594Z" fill="#D5DAD7"/>
<path d="M23.4975 43.0625H20.8872V43.5939H23.4975V43.0625Z" fill="#D5DAD7"/>
<path d="M27.5584 43.856H20.8872V44.2993H27.5584V43.856Z" fill="#D5DAD7"/>
<path d="M20.1302 37.792H15.23V44.6699H20.1302V37.792Z" fill="#DEE6DA"/>
<path d="M17.0605 42.6047L17.1102 45.0265L17.7418 45.538L18.4136 44.9856L18.3936 42.6636C18.3935 42.6635 18.134 41.9321 17.0605 42.6047Z" fill="white"/>
<path d="M17.7859 43.8538H17.6309L17.4692 43.2405H17.9476L17.7859 43.8538Z" fill="#E08663"/>
<path d="M18.1973 45.5829H17.2197L17.634 43.8135H17.783L18.1973 45.5829Z" fill="#E08663"/>
<path d="M16.3945 41.1973C16.6259 41.1973 16.8134 40.9844 16.8134 40.7218C16.8134 40.4592 16.6259 40.2463 16.3945 40.2463C16.1631 40.2463 15.9756 40.4592 15.9756 40.7218C15.9756 40.9844 16.1631 41.1973 16.3945 41.1973Z" fill="#FEBDA3"/>
<path d="M19.0615 41.1973C19.2928 41.1973 19.4804 40.9844 19.4804 40.7218C19.4804 40.4592 19.2928 40.2463 19.0615 40.2463C18.8301 40.2463 18.6426 40.4592 18.6426 40.7218C18.6426 40.9844 18.8301 41.1973 19.0615 41.1973Z" fill="#FEBDA3"/>
<path d="M18.3919 41.6045H17.064V43.2317H18.3919V41.6045Z" fill="#FED5C4"/>
<path d="M17.064 42.3352C17.2678 42.4246 17.492 42.4747 17.7279 42.4747C17.9638 42.4747 18.1881 42.4247 18.3919 42.3352V41.6045H17.064V42.3352Z" fill="#FEBDA3"/>
<path d="M18.1451 42.1644H17.361C16.7949 42.1644 16.3359 41.6962 16.3359 41.1187V39.5579C16.3359 38.9804 16.7949 38.5122 17.361 38.5122H18.1451C18.7112 38.5122 19.1702 38.9804 19.1702 39.5579V41.1187C19.1701 41.6962 18.7112 42.1644 18.1451 42.1644Z" fill="#FED5C4"/>
<path d="M16.7128 38.9558C16.7128 38.9558 18.0185 40.1602 18.6087 39.9777C19.1989 39.7952 19.1811 40.5069 19.1811 40.5069C19.1811 40.5069 19.5746 39.6493 19.4673 39.3391C19.3778 39.0804 19.3778 38.7187 18.7518 38.5544C18.1258 38.3902 16.4803 37.5873 16.7128 38.9558Z" fill="#59524F"/>
<path d="M16.4293 38.6183C16.4293 38.6183 15.8905 38.6768 15.9803 39.2035C16.0701 39.7301 16.3215 40.5494 16.3215 40.5494C16.3215 40.5494 17.0938 39.418 16.95 39.0475C16.8063 38.6769 16.7166 38.5403 16.4293 38.6183Z" fill="#59524F"/>
<path d="M17.4585 40.0432C17.4585 40.0432 17.6619 40.0798 17.638 40.4338C17.614 40.7878 17.5063 41.1418 17.6499 41.154C17.7935 41.1662 17.8533 41.0808 17.8533 41.0808C17.8533 41.0808 17.8414 41.3493 17.6021 41.2638C17.3628 41.1784 17.4943 40.7389 17.5423 40.5315C17.59 40.324 17.4585 40.0432 17.4585 40.0432Z" fill="#FEBDA3"/>
<path d="M17.0618 42.6047L17.7344 43.2574L17.0454 43.6757L17.0618 42.6047Z" fill="#E0E0E0"/>
<path d="M18.3943 42.6047L17.7217 43.2574L18.4107 43.6757L18.3943 42.6047Z" fill="#E0E0E0"/>
<path d="M17.055 42.5654C17.0556 42.6048 17.7545 45.6382 17.7545 45.6382H14.9038V43.3135L17.055 42.5654Z" fill="#45454F"/>
<path d="M18.4006 42.5654C18.4 42.6048 17.7012 45.6382 17.7012 45.6382H20.5518V43.3135L18.4006 42.5654Z" fill="#45454F"/>
<g opacity="0.43">
<path d="M26.041 38.5789V43.0497H29.783V38.5789H26.041ZM27.9966 42.1708C27.2395 42.1708 26.6259 41.5448 26.6259 40.7725C26.6259 40.0001 27.2395 39.3741 27.9966 39.3741C28.7536 39.3741 29.3673 40.0001 29.3673 40.7725C29.3673 41.5448 28.7535 42.1708 27.9966 42.1708Z" fill="#A4B7C4"/>
<path d="M28.0078 41.8351C28.5891 41.8351 29.0604 41.3543 29.0604 40.7612C29.0604 40.1681 28.5891 39.6873 28.0078 39.6873C27.4264 39.6873 26.9551 40.1681 26.9551 40.7612C26.9551 41.3543 27.4264 41.8351 28.0078 41.8351Z" fill="#A4B7C4"/>
</g>
<path d="M21.131 44.6321H20.938V45.3391H21.131V44.6321Z" fill="#A6A6A6"/>
<path d="M21.8173 44.6321H21.2251V45.3391H21.8173V44.6321Z" fill="#A6A6A6"/>
<path d="M21.9221 44.6321H21.8652V45.3391H21.9221V44.6321Z" fill="#A6A6A6"/>
<path d="M22.3054 44.6321H22.2485V45.3391H22.3054V44.6321Z" fill="#A6A6A6"/>
<path d="M22.6887 44.6321H22.6318V45.3391H22.6887V44.6321Z" fill="#A6A6A6"/>
<path d="M22.9505 44.6321H22.8936V45.3391H22.9505V44.6321Z" fill="#A6A6A6"/>
<path d="M23.2123 44.6321H23.1553V45.3391H23.2123V44.6321Z" fill="#A6A6A6"/>
<path d="M23.5955 44.6321H23.5386V45.3391H23.5955V44.6321Z" fill="#A6A6A6"/>
<path d="M23.8572 44.6321H23.8003V45.3391H23.8572V44.6321Z" fill="#A6A6A6"/>
<path d="M24.119 44.6321H24.062V45.3391H24.119V44.6321Z" fill="#A6A6A6"/>
<path d="M24.3806 44.6321H24.3237V45.3391H24.3806V44.6321Z" fill="#A6A6A6"/>
<path d="M24.7639 44.6321H24.707V45.3391H24.7639V44.6321Z" fill="#A6A6A6"/>
<path d="M25.4134 44.6321H25.0903V45.3391H25.4134V44.6321Z" fill="#A6A6A6"/>
<path d="M26.0035 44.6321H25.8706V45.3391H26.0035V44.6321Z" fill="#A6A6A6"/>
</g>
<path d="M17.75 1H5C2.79086 1 1 2.79086 1 5V18M51.25 69H64C66.2091 69 68 67.2091 68 65V52" stroke="#CDCDCD"/>
<path d="M51.25 1H64C66.2091 1 68 2.79086 68 5V18M17.75 69H5C2.79086 69 0.999998 67.2091 0.999998 65V52" stroke="#CDCDCD"/>
<defs>
<clipPath id="clip0_4644_713">
<rect x="8" y="7" width="53" height="56" fill="white"/>
</clipPath>
</defs>
</svg>
