<svg width="23" height="23" viewBox="0 0 23 23" fill="none" xmlns="http://www.w3.org/2000/svg">
<path d="M14.6111 11.2083C14.6111 11.8813 14.4115 12.5392 14.0376 13.0988C13.6637 13.6584 13.1323 14.0945 12.5105 14.3521C11.8887 14.6096 11.2046 14.677 10.5445 14.5457C9.88441 14.4144 9.27809 14.0903 8.80221 13.6145C8.32632 13.1386 8.00224 12.5323 7.87094 11.8722C7.73964 11.2121 7.80703 10.5279 8.06458 9.90615C8.32212 9.28437 8.75827 8.75293 9.31785 8.37903C9.87743 8.00513 10.5353 7.80556 11.2083 7.80556C12.1108 7.80556 12.9763 8.16406 13.6145 8.80221C14.2526 9.44035 14.6111 10.3059 14.6111 11.2083ZM20.2824 8.93981H19.6132C19.3787 8.93888 19.1503 8.8653 18.9594 8.72921C18.7684 8.59312 18.6244 8.4012 18.547 8.17986C18.4461 7.96741 18.4137 7.72884 18.4543 7.49718C18.495 7.26551 18.6066 7.05221 18.7738 6.8868L19.2389 6.42176C19.3452 6.31632 19.4296 6.19086 19.4872 6.05264C19.5448 5.91442 19.5744 5.76617 19.5744 5.61644C19.5744 5.4667 19.5448 5.31845 19.4872 5.18023C19.4296 5.04201 19.3452 4.91656 19.2389 4.81111L17.6282 3.18912C17.5228 3.08281 17.3973 2.99843 17.2591 2.94084C17.1209 2.88326 16.9727 2.85361 16.8229 2.85361C16.6732 2.85361 16.5249 2.88326 16.3867 2.94084C16.2485 2.99843 16.123 3.08281 16.0176 3.18912L15.5525 3.65417C15.3871 3.82138 15.1738 3.93303 14.9422 3.97367C14.7105 4.01432 14.4719 3.98194 14.2595 3.88102C14.0321 3.80687 13.8339 3.66273 13.6934 3.4692C13.5528 3.27567 13.477 3.04266 13.4769 2.80347V2.13426C13.4769 1.83343 13.3573 1.54493 13.1446 1.33222C12.9319 1.1195 12.6434 1 12.3426 1H10.0741C9.77325 1 9.48475 1.1195 9.27203 1.33222C9.05932 1.54493 8.93981 1.83343 8.93981 2.13426V2.80347C8.93888 3.03794 8.8653 3.26636 8.72921 3.4573C8.59312 3.64823 8.4012 3.7923 8.17986 3.86968V3.86968C7.96741 3.9706 7.72884 4.00297 7.49718 3.96233C7.26551 3.92169 7.05221 3.81003 6.8868 3.64282L6.42176 3.17778C6.31632 3.07147 6.19086 2.98708 6.05264 2.9295C5.91442 2.87191 5.76617 2.84227 5.61644 2.84227C5.4667 2.84227 5.31845 2.87191 5.18023 2.9295C5.04201 2.98708 4.91656 3.07147 4.81111 3.17778L3.18912 4.78843C3.08281 4.89387 2.99843 5.01932 2.94084 5.15754C2.88326 5.29576 2.85361 5.44401 2.85361 5.59375C2.85361 5.74349 2.88326 5.89174 2.94084 6.02996C2.99843 6.16818 3.08281 6.29363 3.18912 6.39907L3.65417 6.86412C3.82138 7.02953 3.93303 7.24283 3.97367 7.47449C4.01432 7.70616 3.98194 7.94473 3.88102 8.15718C3.80364 8.37851 3.65958 8.57044 3.46864 8.70653C3.27771 8.84262 3.04929 8.91619 2.81481 8.91713H2.13426C1.83343 8.91713 1.54493 9.03663 1.33222 9.24935C1.1195 9.46206 1 9.75056 1 10.0514V12.3199C1 12.6207 1.1195 12.9092 1.33222 13.1219C1.54493 13.3347 1.83343 13.4542 2.13426 13.4542H2.80347C3.03794 13.4551 3.26636 13.5287 3.4573 13.6648C3.64823 13.8009 3.7923 13.9928 3.86968 14.2141V14.2141C3.9706 14.4266 4.00297 14.6651 3.96233 14.8968C3.92169 15.1285 3.81003 15.3418 3.64282 15.5072L3.17778 15.9722C3.07147 16.0777 2.98708 16.2031 2.9295 16.3413C2.87191 16.4796 2.84227 16.6278 2.84227 16.7775C2.84227 16.9273 2.87191 17.0755 2.9295 17.2138C2.98708 17.352 3.07147 17.4774 3.17778 17.5829L4.77708 19.1822C4.88253 19.2885 5.00798 19.3729 5.1462 19.4305C5.28442 19.488 5.43267 19.5177 5.58241 19.5177C5.73214 19.5177 5.8804 19.488 6.01862 19.4305C6.15684 19.3729 6.28229 19.2885 6.38773 19.1822L6.85278 18.7171C7.01819 18.5499 7.23149 18.4383 7.46315 18.3976C7.69481 18.357 7.93338 18.3894 8.14583 18.4903C8.36717 18.5677 8.55909 18.7117 8.69518 18.9027C8.83128 19.0936 8.90485 19.322 8.90579 19.5565V20.2824C8.90579 20.5832 9.02529 20.8717 9.238 21.0845C9.45072 21.2972 9.73922 21.4167 10.04 21.4167H12.3086C12.6094 21.4167 12.8979 21.2972 13.1106 21.0845C13.3233 20.8717 13.4428 20.5832 13.4428 20.2824V19.6132C13.4438 19.3787 13.5173 19.1503 13.6534 18.9594C13.7895 18.7684 13.9814 18.6244 14.2028 18.547C14.4152 18.4461 14.6538 18.4137 14.8855 18.4543C15.1171 18.495 15.3304 18.6066 15.4958 18.7738L15.9609 19.2389C16.0663 19.3452 16.1918 19.4296 16.33 19.4872C16.4682 19.5448 16.6165 19.5744 16.7662 19.5744C16.9159 19.5744 17.0642 19.5448 17.2024 19.4872C17.3406 19.4296 17.4661 19.3452 17.5715 19.2389L19.1708 17.6396C19.2771 17.5341 19.3615 17.4087 19.4191 17.2705C19.4767 17.1322 19.5063 16.984 19.5063 16.8343C19.5063 16.6845 19.4767 16.5363 19.4191 16.3981C19.3615 16.2598 19.2771 16.1344 19.1708 16.0289L18.7058 15.5639C18.5386 15.3985 18.4269 15.1852 18.3863 14.9535C18.3456 14.7219 18.378 14.4833 18.4789 14.2708V14.2708C18.5563 14.0495 18.7004 13.8576 18.8913 13.7215C19.0822 13.5854 19.3107 13.5118 19.5451 13.5109H20.2824C20.5832 13.5109 20.8717 13.3914 21.0845 13.1787C21.2972 12.9659 21.4167 12.6774 21.4167 12.3766V10.0741C21.4167 9.77325 21.2972 9.48475 21.0845 9.27203C20.8717 9.05932 20.5832 8.93981 20.2824 8.93981Z" stroke="white" stroke-width="2" stroke-linecap="round" stroke-linejoin="round"/>
</svg>
