<svg width="58" height="58" viewBox="0 0 58 58" fill="none" xmlns="http://www.w3.org/2000/svg">
<g filter="url(#filter0_d_4373_1933)">
<rect x="15" y="11" width="28" height="28" rx="14" fill="#43CDF9"/>
<path d="M35.3438 21.75C35.3438 21.9062 35.3438 22.0312 35.3438 22.1875C35.3438 26.5312 32.0625 31.5 26.0312 31.5C24.1562 31.5 22.4375 30.9688 21 30.0312C21.25 30.0625 21.5 30.0938 21.7812 30.0938C23.3125 30.0938 24.7188 29.5625 25.8438 28.6875C24.4062 28.6562 23.1875 27.7188 22.7812 26.4062C23 26.4375 23.1875 26.4688 23.4062 26.4688C23.6875 26.4688 24 26.4062 24.25 26.3438C22.75 26.0312 21.625 24.7188 21.625 23.125V23.0938C22.0625 23.3438 22.5938 23.4688 23.125 23.5C22.2188 22.9062 21.6562 21.9062 21.6562 20.7812C21.6562 20.1562 21.8125 19.5938 22.0938 19.125C23.7188 21.0938 26.1562 22.4062 28.875 22.5625C28.8125 22.3125 28.7812 22.0625 28.7812 21.8125C28.7812 20 30.25 18.5312 32.0625 18.5312C33 18.5312 33.8438 18.9062 34.4688 19.5625C35.1875 19.4062 35.9062 19.125 36.5312 18.75C36.2812 19.5312 35.7812 20.1562 35.0938 20.5625C35.75 20.5 36.4062 20.3125 36.9688 20.0625C36.5312 20.7188 35.9688 21.2812 35.3438 21.75Z" fill="white"/>
</g>
<defs>
<filter id="filter0_d_4373_1933" x="0" y="0" width="58" height="58" filterUnits="userSpaceOnUse" color-interpolation-filters="sRGB">
<feFlood flood-opacity="0" result="BackgroundImageFix"/>
<feColorMatrix in="SourceAlpha" type="matrix" values="0 0 0 0 0 0 0 0 0 0 0 0 0 0 0 0 0 0 127 0" result="hardAlpha"/>
<feOffset dy="4"/>
<feGaussianBlur stdDeviation="7.5"/>
<feComposite in2="hardAlpha" operator="out"/>
<feColorMatrix type="matrix" values="0 0 0 0 0.262745 0 0 0 0 0.803922 0 0 0 0 0.976471 0 0 0 1 0"/>
<feBlend mode="normal" in2="BackgroundImageFix" result="effect1_dropShadow_4373_1933"/>
<feBlend mode="normal" in="SourceGraphic" in2="effect1_dropShadow_4373_1933" result="shape"/>
</filter>
</defs>
</svg>
