<svg width="20" height="22" viewBox="0 0 20 22" fill="none" xmlns="http://www.w3.org/2000/svg">
<path d="M13.6461 11.71C14.6265 10.9387 15.3421 9.88092 15.6933 8.68394C16.0446 7.48697 16.014 6.21027 15.6059 5.03147C15.1977 3.85267 14.4323 2.83039 13.4162 2.10686C12.4 1.38332 11.1835 0.994507 9.93609 0.994507C8.68864 0.994507 7.47221 1.38332 6.45602 2.10686C5.43984 2.83039 4.67444 3.85267 4.26631 5.03147C3.85817 6.21027 3.82761 7.48697 4.17885 8.68394C4.5301 9.88092 5.2457 10.9387 6.22609 11.71C4.54617 12.383 3.08038 13.4994 1.98499 14.9399C0.889591 16.3805 0.205656 18.0913 0.00609288 19.89C-0.00835253 20.0213 0.00320942 20.1542 0.0401183 20.2811C0.0770272 20.4079 0.13856 20.5263 0.221204 20.6293C0.303849 20.7324 0.405985 20.8182 0.521783 20.8818C0.63758 20.9454 0.764771 20.9856 0.896093 21C1.02741 21.0144 1.1603 21.0029 1.28715 20.966C1.414 20.9291 1.53235 20.8675 1.63542 20.7849C1.73849 20.7022 1.82428 20.6001 1.88788 20.4843C1.95148 20.3685 1.99165 20.2413 2.00609 20.11C2.22568 18.1552 3.15778 16.3498 4.62431 15.0388C6.09084 13.7278 7.98899 13.003 9.95609 13.003C11.9232 13.003 13.8213 13.7278 15.2879 15.0388C16.7544 16.3498 17.6865 18.1552 17.9061 20.11C17.9333 20.3557 18.0505 20.5827 18.2352 20.747C18.4199 20.9114 18.6589 21.0015 18.9061 21H19.0161C19.2782 20.9698 19.5178 20.8373 19.6827 20.6313C19.8475 20.4252 19.9242 20.1624 19.8961 19.9C19.6956 18.0962 19.008 16.381 17.9069 14.9382C16.8059 13.4954 15.333 12.3795 13.6461 11.71ZM9.93609 11C9.14497 11 8.37161 10.7654 7.71381 10.3259C7.05602 9.88636 6.54332 9.26164 6.24057 8.53074C5.93782 7.79983 5.85861 6.99557 6.01295 6.21964C6.16729 5.44372 6.54826 4.73099 7.10767 4.17158C7.66708 3.61217 8.37981 3.2312 9.15573 3.07686C9.93166 2.92252 10.7359 3.00173 11.4668 3.30448C12.1977 3.60724 12.8224 4.11993 13.262 4.77772C13.7015 5.43552 13.9361 6.20888 13.9361 7C13.9361 8.06087 13.5147 9.07828 12.7645 9.82843C12.0144 10.5786 10.997 11 9.93609 11Z" fill="currentColor"/>
</svg>
