<svg width="23" height="22" viewBox="0 0 23 22" fill="none" xmlns="http://www.w3.org/2000/svg">
<path d="M8.45886 11.7853H8.4605C9.9368 11.7853 11.3248 11.2231 12.3712 10.2039C13.4191 9.18298 13.9962 7.82765 13.9962 6.39109C13.993 3.41924 11.5096 1.00003 8.45886 1.00003C6.98256 1.00003 5.5929 1.56223 4.54494 2.58311C3.49861 3.60399 2.92149 4.95772 2.92313 6.39587C2.92476 9.36773 5.40816 11.7853 8.45886 11.7853Z" stroke="#525558" stroke-width="1.88571" stroke-miterlimit="10"/>
<path d="M13.0792 13.5491C10.6105 15.6562 6.53311 15.6546 4.08568 13.5714C3.92055 13.4313 3.67042 13.452 3.53472 13.6192C2.66332 14.7006 1.35378 16.7949 1.00228 19.9228C0.977755 20.1442 1.15432 20.3385 1.38321 20.3385L15.561 20.3353C15.7866 20.3353 15.9631 20.1474 15.9419 19.9276C15.7898 18.3286 15.2847 15.6243 13.6334 13.5953C13.4945 13.4297 13.2427 13.409 13.0792 13.5491Z" stroke="#525558" stroke-width="1.88571" stroke-miterlimit="10"/>
<mask id="path-3-inside-1_4468_319" fill="white">
<path d="M22.4093 10.0342H20.0387V7.72484C20.0387 7.57673 19.9145 7.45569 19.7624 7.45569H18.5951C18.4431 7.45569 18.3188 7.57673 18.3188 7.72484V10.0342H15.9482C15.7962 10.0342 15.6719 10.1552 15.6719 10.3033V11.4405C15.6719 11.5886 15.7962 11.7096 15.9482 11.7096H18.3188V14.0189C18.3188 14.167 18.4431 14.2881 18.5951 14.2881H19.7624C19.9145 14.2881 20.0387 14.167 20.0387 14.0189V11.7096H22.4093C22.5614 11.7096 22.6856 11.5886 22.6856 11.4405V10.3033C22.6856 10.1536 22.5614 10.0342 22.4093 10.0342Z"/>
</mask>
<path d="M20.0387 10.0342H18.153V11.9199H20.0387V10.0342ZM18.3188 10.0342V11.9199H20.2045V10.0342H18.3188ZM18.3188 11.7096H20.2045V9.8239H18.3188V11.7096ZM20.0387 11.7096V9.8239H18.153V11.7096H20.0387ZM22.4093 8.14845H20.0387V11.9199H22.4093V8.14845ZM21.9244 10.0342V7.72484H18.153V10.0342H21.9244ZM21.9244 7.72484C21.9244 6.48903 20.9091 5.56997 19.7624 5.56997V9.3414C18.9199 9.3414 18.153 8.66442 18.153 7.72484H21.9244ZM19.7624 5.56997H18.5951V9.3414H19.7624V5.56997ZM18.5951 5.56997C17.4485 5.56997 16.4331 6.48904 16.4331 7.72484H20.2045C20.2045 8.66441 19.4377 9.3414 18.5951 9.3414V5.56997ZM16.4331 7.72484V10.0342H20.2045V7.72484H16.4331ZM18.3188 8.14845H15.9482V11.9199H18.3188V8.14845ZM15.9482 8.14845C14.8016 8.14845 13.7862 9.0675 13.7862 10.3033H17.5577C17.5577 11.2429 16.7908 11.9199 15.9482 11.9199V8.14845ZM13.7862 10.3033V11.4405H17.5577V10.3033H13.7862ZM13.7862 11.4405C13.7862 12.6763 14.8016 13.5953 15.9482 13.5953V9.8239C16.7908 9.8239 17.5577 10.5009 17.5577 11.4405H13.7862ZM15.9482 13.5953H18.3188V9.8239H15.9482V13.5953ZM16.4331 11.7096V14.0189H20.2045V11.7096H16.4331ZM16.4331 14.0189C16.4331 15.2547 17.4485 16.1738 18.5951 16.1738V12.4024C19.4377 12.4024 20.2045 13.0793 20.2045 14.0189H16.4331ZM18.5951 16.1738H19.7624V12.4024H18.5951V16.1738ZM19.7624 16.1738C20.9091 16.1738 21.9244 15.2548 21.9244 14.0189H18.153C18.153 13.0793 18.9199 12.4024 19.7624 12.4024V16.1738ZM21.9244 14.0189V11.7096H18.153V14.0189H21.9244ZM20.0387 13.5953H22.4093V9.8239H20.0387V13.5953ZM22.4093 13.5953C23.556 13.5953 24.5713 12.6762 24.5713 11.4405H20.7999C20.7999 10.5009 21.5667 9.8239 22.4093 9.8239V13.5953ZM24.5713 11.4405V10.3033H20.7999V11.4405H24.5713ZM24.5713 10.3033C24.5713 9.05876 23.5486 8.14845 22.4093 8.14845V11.9199C21.5741 11.9199 20.7999 11.2485 20.7999 10.3033H24.5713Z" fill="#525558" mask="url(#path-3-inside-1_4468_319)"/>
</svg>
